<?xml version="1.0" standalone="no"?>
<!DOCTYPE svg PUBLIC "-//W3C//DTD SVG 20010904//EN"
 "http://www.w3.org/TR/2001/REC-SVG-20010904/DTD/svg10.dtd">
<svg version="1.0" xmlns="http://www.w3.org/2000/svg"
 width="960.000000pt" height="960.000000pt" viewBox="0 0 960.000000 960.000000"
 preserveAspectRatio="xMidYMid meet">

<g transform="translate(0.000000,960.000000) scale(0.100000,-0.100000)"
fill="#000000" stroke="none">
<path d="M1734 9568 c3 -18 12 -36 19 -40 6 -4 7 -8 2 -8 -6 0 -11 -9 -11 -20
0 -35 14 -22 21 20 8 47 -1 80 -22 80 -12 0 -14 -7 -9 -32z"/>
<path d="M1850 9585 c-8 -9 -8 -15 -2 -15 12 0 26 19 19 26 -2 2 -10 -2 -17
-11z"/>
<path d="M1900 9556 c19 -8 44 -15 55 -15 l20 0 -20 8 c-11 5 -36 11 -55 15
l-35 6 35 -14z"/>
<path d="M2008 9523 c7 -3 16 -2 19 1 4 3 -2 6 -13 5 -11 0 -14 -3 -6 -6z"/>
<path d="M2092 9490 c4 -17 2 -17 -117 -19 -61 -1 -95 -5 -95 -12 0 -12 219
-2 233 11 4 4 1 13 -8 20 -13 11 -16 11 -13 0z"/>
<path d="M2130 9469 c0 -12 25 -22 41 -17 6 2 0 9 -15 16 -16 7 -26 8 -26 1z"/>
<path d="M1460 9454 c-22 -12 -23 -13 -5 -13 24 -1 50 14 38 22 -4 3 -19 -1
-33 -9z"/>
<path d="M1760 9456 c0 -9 -5 -16 -11 -16 -5 0 -7 5 -4 10 4 6 -9 10 -32 9
-36 -1 -37 -2 -8 -8 23 -5 31 -13 36 -36 3 -17 1 -38 -4 -49 -5 -10 -7 -65 -5
-122 3 -103 1 -113 -18 -94 -6 6 -29 4 -67 -7 -36 -10 -54 -20 -49 -25 6 -6
21 -4 40 6 44 23 79 21 87 -5 9 -28 41 -21 37 9 -3 20 1 22 37 22 23 0 41 4
41 9 0 13 -34 23 -53 15 -27 -10 -34 27 -28 146 l6 115 33 3 c42 4 37 26 -6
30 -24 2 -32 -1 -32 -12z"/>
<path d="M1567 9453 c18 -2 50 -2 70 0 21 2 7 4 -32 4 -38 0 -55 -2 -38 -4z"/>
<path d="M1873 9345 c0 -22 2 -30 4 -17 2 12 2 30 0 40 -3 9 -5 -1 -4 -23z"/>
<path d="M1865 9190 c3 -5 8 -10 11 -10 2 0 4 5 4 10 0 6 -5 10 -11 10 -5 0
-7 -4 -4 -10z"/>
<path d="M1875 9161 c4 -7 1 -19 -6 -27 -6 -8 -9 -17 -6 -20 9 -9 27 5 27 22
0 19 6 18 120 -22 28 -10 -9 -20 -69 -19 -38 1 -58 -2 -55 -9 4 -9 -82 -14
-118 -7 -10 2 -294 2 -310 0 -7 0 3 -5 22 -10 19 -6 116 -13 215 -17 l180 -7
2 -88 c0 -49 4 -91 8 -95 3 -4 5 37 3 91 -2 53 -3 97 -3 98 0 4 204 24 218 21
9 -2 17 -11 17 -20 0 -13 2 -14 13 -3 10 10 7 16 -12 32 -13 10 -34 19 -47 19
-13 0 -24 4 -24 10 0 5 -12 12 -27 16 -16 3 -41 12 -58 19 -47 20 -99 29 -90
16z"/>
<path d="M1540 9110 c-13 -8 -13 -10 2 -10 9 0 20 5 23 10 8 13 -5 13 -25 0z"/>
<path d="M1880 8826 c0 -8 -7 -17 -16 -20 -15 -6 -15 -8 0 -25 13 -15 14 -21
5 -27 -7 -4 -14 -3 -16 3 -4 12 -50 5 -59 -8 -3 -5 12 -10 33 -11 147 -7 199
-17 195 -41 -2 -10 4 -15 18 -14 11 1 20 3 20 5 0 9 -42 44 -97 81 -35 24 -63
49 -63 57 0 8 -4 14 -10 14 -5 0 -10 -6 -10 -14z"/>
<path d="M1780 8810 c-12 -8 -11 -10 8 -10 12 0 22 5 22 10 0 13 -11 13 -30 0z"/>
<path d="M1672 8751 c-11 -7 -11 -9 0 -13 18 -7 39 2 32 13 -6 11 -15 11 -32
0z"/>
<path d="M3015 8738 c-175 -19 -346 -73 -540 -169 -131 -65 -217 -129 -344
-258 -111 -112 -173 -198 -214 -297 -41 -97 -94 -283 -102 -359 -5 -41 -11
-62 -14 -50 -8 26 -35 33 -29 7 4 -15 0 -17 -25 -14 -25 4 -29 2 -24 -12 4
-10 7 -22 7 -27 0 -5 9 -9 20 -9 11 0 20 -7 20 -15 0 -8 -9 -15 -20 -15 -14 0
-18 -5 -14 -17 3 -10 8 -25 10 -33 5 -13 6 -13 14 0 7 11 10 5 10 -21 0 -20
-6 -42 -14 -49 -8 -6 -12 -18 -9 -26 3 -9 -2 -14 -17 -14 -27 0 -22 -24 6 -28
28 -4 46 46 44 121 -3 78 -2 87 8 87 5 0 9 -66 9 -147 -1 -141 14 -251 43
-327 8 -23 7 -26 -13 -26 -30 -1 -98 -33 -119 -57 -27 -30 -48 -100 -55 -183
-4 -41 -9 -68 -10 -59 -2 9 -23 22 -46 30 -23 8 -56 26 -74 42 -28 24 -38 27
-83 24 -32 -3 -63 -13 -82 -27 -19 -14 -37 -20 -51 -16 -46 13 -59 33 -73 118
-26 149 -54 185 -54 68 0 -56 -3 -72 -16 -77 -27 -10 -44 25 -44 87 0 44 -4
61 -20 75 -11 10 -20 28 -20 39 0 36 -32 189 -51 244 -11 29 -19 63 -19 76 0
29 -21 48 -39 37 -7 -5 -17 -26 -21 -47 -5 -22 -16 -64 -25 -94 -9 -30 -20
-84 -25 -120 -4 -36 -15 -90 -23 -120 -9 -30 -18 -75 -21 -100 -3 -25 -5 -46
-5 -47 -2 -9 -47 -1 -73 13 -30 15 -78 12 -78 -5 0 -13 99 -61 125 -61 12 0
25 -4 31 -9 12 -11 117 -38 179 -46 84 -10 145 -34 145 -56 0 -14 -7 -19 -27
-19 -66 -1 -69 -42 -6 -59 21 -5 73 -19 115 -31 93 -26 124 -30 251 -33 59 -1
97 2 98 8 0 6 4 1 9 -10 6 -13 9 -15 9 -5 1 13 2 13 11 0 11 -17 12 -11 12 45
-1 19 1 23 4 10 23 -91 71 -208 102 -247 97 -122 199 -201 280 -219 55 -12 72
-23 72 -44 -1 -5 -5 -2 -11 8 -5 9 -22 17 -37 17 -15 0 -49 11 -77 24 -50 23
-62 33 -143 107 -24 22 -47 37 -53 34 -5 -4 -9 3 -9 13 0 23 -23 45 -35 34 -5
-4 -5 -2 -1 5 3 6 -5 28 -19 49 -14 20 -25 42 -25 48 0 6 -5 4 -11 -4 -8 -12
-9 -11 -4 6 7 27 -21 58 -44 49 -37 -15 -128 -26 -162 -21 -29 5 -41 1 -62
-18 -14 -13 -28 -22 -30 -20 -2 2 -4 -3 -4 -11 0 -8 8 -15 17 -15 10 0 23 -7
30 -15 7 -8 19 -15 27 -15 8 0 24 -5 36 -12 12 -6 36 -12 54 -14 18 -2 54 -10
80 -19 26 -9 62 -17 80 -18 29 -1 32 -3 26 -26 -3 -15 -8 -29 -10 -34 -8 -14
-68 -34 -123 -39 -71 -8 -83 -11 -92 -23 -4 -6 -16 -1 -30 11 -40 36 -48 37
-73 10 -19 -21 -30 -25 -54 -20 -25 5 -31 3 -31 -11 0 -10 -8 -24 -17 -31 -17
-12 -16 -13 7 -14 14 0 31 4 39 9 22 14 51 1 51 -24 0 -38 49 -41 50 -3 0 4 9
6 20 5 30 -2 24 -24 -12 -43 -24 -13 -36 -14 -50 -5 -10 6 -22 11 -27 11 -13
0 -6 -53 8 -58 19 -6 12 -40 -9 -47 -19 -6 -28 -24 -12 -26 40 -3 65 -9 75
-17 7 -6 41 -13 77 -17 94 -10 167 -33 185 -58 13 -19 25 -22 88 -23 107 -1
204 -13 274 -35 34 -10 72 -21 85 -22 12 -2 24 -9 26 -15 2 -7 22 -12 43 -12
24 0 38 4 34 10 -3 6 -2 10 3 10 8 0 22 -22 22 -34 0 -2 -35 -6 -77 -10 -126
-11 -141 -18 -223 -102 -69 -70 -190 -154 -222 -154 -7 0 10 12 39 27 32 17
49 31 46 40 -6 15 -69 18 -78 3 -10 -17 -54 -11 -73 9 -9 10 -28 31 -41 45
-16 18 -33 26 -57 26 -19 0 -51 7 -71 15 -75 32 -185 9 -197 -40 -9 -35 -29
-27 -37 14 -4 18 -16 42 -28 55 -13 14 -21 36 -21 57 -1 50 -17 111 -32 120
-27 18 -36 8 -42 -50 -7 -64 -11 -72 -32 -64 -10 4 -14 23 -14 64 0 44 -6 70
-26 105 -20 36 -27 65 -31 128 -2 44 -13 104 -24 131 -10 28 -20 67 -23 88 -2
21 -10 46 -19 54 -13 14 -16 13 -25 -3 -5 -11 -13 -40 -16 -66 -4 -26 -11 -50
-16 -53 -4 -3 -11 -23 -15 -45 -4 -22 -10 -40 -14 -40 -5 0 -11 -23 -14 -52
-4 -28 -15 -74 -26 -102 -28 -76 -41 -120 -41 -143 0 -28 -20 -43 -55 -39 -45
5 -75 -20 -75 -60 0 -22 -6 -37 -15 -40 -20 -8 -45 13 -45 38 0 10 -7 30 -16
43 -9 13 -18 50 -20 82 -4 54 -76 287 -95 307 -13 14 -47 -73 -54 -136 -4 -32
-10 -58 -15 -58 -11 0 -28 59 -36 120 -3 25 -9 54 -13 65 -5 11 -12 34 -17 50
-5 17 -14 30 -19 30 -5 0 -13 -13 -18 -30 -5 -16 -13 -43 -19 -60 -6 -16 -21
-78 -33 -136 -24 -113 -38 -148 -58 -150 -11 -2 -29 -3 -108 -7 -22 -1 -51
-14 -77 -34 l-42 -32 0 -73 0 -73 168 -1 c92 0 178 -2 192 -4 14 -3 75 -7 135
-10 110 -6 322 -39 360 -57 64 -29 95 -50 95 -62 0 -19 18 -25 128 -37 54 -6
121 -14 150 -18 52 -8 53 -7 48 14 -5 21 -5 21 70 9 42 -6 79 -15 83 -20 6 -9
16 -11 73 -16 14 -2 24 -6 21 -10 -2 -5 1 -8 8 -8 20 0 93 23 107 33 7 5 15 8
17 5 8 -8 -93 -54 -275 -125 -215 -85 -457 -208 -603 -305 -31 -22 -62 -36
-69 -32 -6 4 -8 3 -4 -4 3 -6 -8 -21 -26 -34 -18 -12 -65 -50 -103 -83 -104
-89 -107 -91 -99 -71 3 9 11 16 16 16 6 0 -1 9 -16 21 -14 11 -26 29 -26 40 0
30 -26 73 -52 87 -16 9 -50 12 -105 8 -94 -5 -97 -3 -107 67 -4 26 -11 47 -16
47 -5 0 -10 10 -12 21 -2 12 -19 35 -39 51 -31 25 -41 28 -77 22 l-42 -7 2
-311 3 -310 42 -8 c24 -4 63 -16 88 -27 36 -16 45 -25 45 -45 0 -19 -6 -27
-22 -30 -134 -28 -153 -39 -122 -71 9 -9 13 -23 9 -35 -8 -24 11 -60 30 -60 8
0 15 -4 15 -8 0 -5 10 -8 22 -7 13 1 25 -5 29 -13 3 -8 30 39 64 113 32 69 63
129 68 132 4 3 -3 -18 -18 -46 -32 -65 -176 -415 -221 -539 l-34 -93 0 -1923
0 -1923 555 -1 c305 -1 555 2 555 6 0 5 27 21 60 37 51 24 60 33 60 55 0 54
59 69 95 23 l22 -26 31 23 c25 18 34 21 46 11 11 -9 15 -9 19 1 3 7 6 -8 6
-34 1 -27 -3 -48 -7 -48 -4 0 -8 -9 -9 -20 -1 -11 2 -18 8 -15 5 4 9 12 9 19
0 12 39 52 69 70 11 7 13 4 9 -12 -4 -12 -3 -20 2 -17 12 7 18 -53 6 -65 -7
-7 -3 -10 12 -10 16 0 22 6 22 21 0 11 4 18 10 14 5 -3 7 -13 4 -23 -3 -10 4
-6 18 11 29 33 42 35 36 3 l-5 -25 599 -1 c329 0 598 2 598 6 0 16 -36 64 -57
75 -14 7 -29 21 -34 31 -9 16 -5 18 30 18 22 0 43 -4 46 -10 8 -13 35 -13 35
-1 0 6 -11 22 -25 37 -30 33 -31 45 -4 62 37 23 104 -4 97 -39 -2 -9 5 -13 19
-11 17 2 21 -1 17 -11 -3 -8 -1 -18 5 -22 7 -3 8 0 5 9 -6 17 31 42 41 27 3
-5 1 -13 -5 -16 -6 -4 -8 -16 -4 -27 5 -17 3 -20 -10 -15 -9 4 -16 2 -16 -3 0
-6 6 -10 13 -10 17 -1 69 -71 63 -87 -4 -11 135 -13 754 -13 l760 0 0 118 c0
64 -9 219 -20 342 -26 291 -25 368 4 542 35 205 53 336 76 558 11 107 30 269
42 360 11 91 26 208 32 260 9 73 14 89 20 70 15 -45 93 -197 132 -257 153
-234 284 -352 518 -468 61 -30 147 -64 191 -76 147 -39 487 -36 689 7 80 17
436 134 594 196 135 53 345 159 439 221 78 52 213 168 306 263 32 32 64 64 70
71 7 6 46 38 87 71 41 33 147 123 235 200 113 100 182 152 235 179 107 54 303
248 349 345 41 88 57 166 42 209 -10 29 -8 37 28 93 21 34 50 85 65 114 15 30
30 52 32 49 3 -3 -2 -19 -10 -36 -30 -57 -35 -78 -21 -78 7 0 11 6 9 12 -3 6
2 12 11 12 8 0 15 -6 15 -13 0 -13 50 -15 60 -3 3 3 22 9 43 13 27 5 37 3 37
-6 0 -9 3 -9 10 2 7 12 13 13 27 4 16 -10 21 -5 43 38 14 28 30 51 35 52 6 0
15 -14 21 -32 5 -18 17 -39 25 -48 14 -13 19 -12 46 13 17 15 34 38 38 51 10
34 28 27 21 -8 -3 -17 -9 -42 -12 -57 -4 -22 0 -31 16 -41 18 -11 25 -11 45 2
14 9 35 16 48 16 12 0 28 5 35 12 7 7 12 8 12 3 0 -6 14 -10 30 -11 17 -1 30
3 30 8 0 5 10 8 23 6 12 -1 37 8 55 21 22 15 43 22 62 19 16 -2 27 -1 24 3 -2
4 0 10 6 14 5 3 10 1 10 -4 0 -6 7 -11 15 -11 18 0 20 16 3 24 -7 4 -2 4 11 2
52 -10 51 -26 51 594 0 453 -3 579 -12 583 -10 4 -10 6 0 6 17 1 15 41 -3 41
-8 0 -26 -5 -40 -12 -19 -8 -22 -14 -13 -20 8 -5 -13 -7 -49 -6 -65 2 -96 -13
-108 -53 -6 -17 -8 -17 -21 -4 -14 14 -19 13 -45 -2 -16 -10 -29 -23 -29 -29
0 -17 -26 -35 -55 -38 -25 -3 -54 -30 -55 -51 0 -6 -14 -19 -31 -29 -17 -10
-35 -28 -41 -41 -9 -20 -14 -22 -52 -13 -22 5 -48 11 -57 14 -12 3 -19 -7 -29
-41 -12 -43 -14 -45 -46 -41 -33 3 -34 2 -35 -33 -1 -29 -3 -26 -10 19 -17
115 -32 167 -68 241 -61 124 -176 258 -278 322 -23 14 -45 31 -49 38 -4 6 10
0 31 -14 41 -28 58 -27 49 1 -5 13 -4 14 4 3 6 -8 18 -11 33 -6 19 5 21 4 9
-4 -22 -15 2 -13 25 2 19 12 67 25 173 47 26 5 85 19 132 30 47 12 116 28 153
36 38 7 73 17 79 20 6 4 38 9 72 11 37 2 82 14 113 28 28 14 59 25 68 25 8 0
18 7 21 15 4 8 14 15 23 15 9 0 43 9 76 19 l60 19 3 97 c2 82 0 97 -12 92 -8
-3 -20 2 -27 11 -8 9 -10 14 -5 10 5 -4 17 -3 27 3 17 9 19 23 19 119 l0 110
-62 -1 c-35 -1 -71 -6 -80 -11 -12 -6 -18 -5 -18 2 0 7 -8 9 -20 5 -14 -5 -20
-2 -20 9 0 9 5 16 10 16 6 0 10 9 10 20 0 13 -7 20 -19 20 -19 0 -30 -32 -32
-94 0 -17 -3 -25 -6 -18 -2 7 -22 12 -44 12 -21 0 -39 5 -39 10 0 6 18 10 40
10 22 0 40 5 40 10 0 6 -18 10 -40 10 -22 0 -40 4 -40 9 0 5 -19 11 -42 12
l-43 4 3 -42 c3 -34 8 -43 25 -46 21 -3 21 -4 3 -12 -13 -6 -21 -5 -24 3 -2 7
-17 12 -34 12 l-30 0 23 -19 24 -19 -28 -11 c-38 -15 -37 -15 -37 19 0 20 -5
30 -15 30 -8 0 -15 -4 -15 -10 0 -15 -67 -42 -102 -40 -47 3 -55 1 -39 -9 12
-8 12 -12 -2 -26 -11 -11 -39 -18 -84 -20 -38 -3 -95 -10 -128 -16 -33 -6 -68
-12 -77 -12 -10 -1 -18 -7 -18 -14 0 -16 -96 -18 -105 -3 -3 6 1 7 9 4 11 -4
16 0 16 11 0 13 -6 15 -29 10 -46 -10 -152 15 -179 41 -25 24 -22 44 7 44 9 0
21 4 27 9 14 15 94 26 94 13 0 -14 70 -28 79 -16 3 5 11 9 16 9 18 0 109 26
140 40 27 12 152 53 231 76 17 5 45 9 62 9 18 0 32 4 32 9 0 11 78 33 124 34
20 1 36 4 36 8 0 4 17 5 38 2 20 -3 71 0 112 5 78 11 154 4 151 -13 0 -5 4
-10 9 -9 6 1 22 2 38 3 20 1 23 4 13 10 -12 8 -9 11 12 16 l27 7 0 334 c0 280
-2 334 -14 334 -8 0 -43 13 -78 28 -53 24 -82 30 -183 36 -164 9 -224 22 -257
58 -15 15 -31 28 -35 29 -4 1 -34 3 -67 5 -34 2 -69 11 -85 21 -14 10 -35 18
-46 19 -54 5 -120 39 -168 86 -16 15 -33 28 -39 28 -5 0 -22 9 -36 20 -26 21
-72 20 -99 -2 -21 -17 -112 -18 -157 -2 -57 22 -125 55 -162 80 -27 18 -43 20
-115 16 -46 -2 -88 -8 -94 -13 -12 -12 -62 -12 -70 1 -3 6 -28 10 -55 10 -47
0 -140 31 -140 48 0 4 -13 23 -29 42 -24 29 -31 33 -44 22 -12 -10 -21 -11
-36 -3 -11 6 -41 11 -68 11 -28 0 -58 7 -71 15 -15 11 -33 14 -56 9 -38 -7
-94 18 -154 68 -41 35 -77 44 -107 28 -39 -21 -91 -6 -128 35 -32 36 -34 37
-132 45 -98 8 -179 33 -215 65 -10 9 -42 15 -80 16 -78 3 -108 13 -135 43 -15
18 -42 27 -110 40 -58 11 -119 31 -170 56 -44 21 -105 46 -135 55 -30 10 -84
28 -120 41 -36 13 -71 24 -78 24 -6 0 -12 4 -12 10 0 5 -12 13 -27 16 -16 4
-43 20 -61 36 -42 36 -52 35 -52 -3 0 -31 -1 -31 -36 -26 -46 8 -54 16 -29 29
19 11 19 11 0 20 -13 5 -8 6 15 2 33 -6 34 -5 18 11 -9 10 -27 19 -40 22 -12
2 -40 6 -61 9 -20 4 -43 15 -50 25 -7 10 -29 20 -48 23 -19 3 -53 10 -77 17
-47 13 -58 9 -48 -17 6 -16 8 -15 21 2 8 11 15 14 15 7 0 -7 12 -13 28 -13 15
0 33 -4 41 -9 11 -7 5 -11 -22 -16 -20 -4 -34 -11 -31 -16 8 -14 62 -11 67 4
3 9 9 7 24 -5 11 -10 25 -18 31 -18 21 0 81 -35 78 -45 -2 -5 -14 -9 -27 -8
-13 1 -48 2 -77 4 -33 1 -56 7 -61 16 -4 8 -23 16 -42 18 -74 8 -169 30 -169
38 0 5 -34 6 -80 2 -54 -5 -80 -4 -80 3 0 6 19 13 43 15 40 3 39 4 -11 5 -32
1 -59 8 -68 17 -25 25 -44 18 -44 -15 l0 -30 -80 0 c-64 0 -80 3 -80 15 0 9
-9 15 -25 15 -15 0 -25 -6 -25 -14 0 -8 -6 -17 -12 -20 -10 -5 -10 -7 0 -12 6
-3 12 -14 12 -24 0 -10 -6 -20 -12 -23 -17 -5 -60 11 -70 26 -4 7 -8 8 -8 2 0
-5 -25 -11 -55 -12 -44 -1 -55 1 -55 14 0 12 -8 14 -35 11 -20 -2 -35 0 -36 7
0 5 -4 1 -9 -10 -8 -18 -9 -18 -10 5 -1 14 -4 19 -7 12 -3 -7 0 -34 5 -60 6
-26 13 -63 17 -83 l5 -35 73 -12 c96 -15 115 -20 129 -28 7 -4 48 -8 93 -9 44
0 85 -4 91 -8 15 -9 134 -33 206 -42 32 -3 60 -11 63 -16 4 -5 15 -9 26 -9 18
0 95 -21 139 -38 8 -3 18 -6 22 -6 3 -1 10 -4 14 -8 4 -5 22 -8 40 -8 18 0 35
-4 38 -8 8 -14 145 -64 156 -57 5 3 10 2 10 -4 0 -6 19 -15 43 -21 43 -12 207
-66 242 -80 11 -5 28 -11 38 -14 31 -10 9 -24 -28 -19 -22 3 -35 1 -35 -7 0
-7 -8 -9 -22 -5 l-23 7 23 -17 c13 -9 29 -14 37 -11 7 2 19 -2 25 -10 7 -8 18
-14 25 -14 8 0 15 -4 17 -9 2 -6 16 -12 31 -15 16 -3 40 -16 54 -30 14 -15 32
-26 40 -26 7 0 16 -7 20 -16 3 -8 17 -20 32 -25 20 -8 22 -12 11 -19 -16 -10
-15 -12 23 -28 16 -7 27 -8 27 -2 0 6 5 10 12 10 6 0 8 -3 5 -7 -11 -10 51
-33 92 -33 20 0 53 -3 73 -6 34 -6 38 -10 45 -43 6 -34 7 -35 14 -11 4 15 7
18 8 8 1 -19 30 -38 59 -38 11 0 31 -9 45 -21 15 -11 36 -22 47 -24 28 -5 150
-75 150 -86 0 -5 6 -8 13 -6 7 1 13 -10 15 -26 2 -15 7 -25 12 -22 14 9 50
-14 50 -30 0 -8 7 -15 16 -15 9 0 18 -9 21 -19 5 -18 26 -30 65 -35 10 -2 26
-10 36 -19 10 -9 24 -17 30 -17 7 0 12 -7 12 -15 0 -8 5 -15 11 -15 5 0 7 5 4
10 -11 18 4 11 25 -12 11 -12 20 -16 20 -9 0 7 4 10 9 7 11 -7 10 -76 -1 -76
-4 0 -8 7 -8 15 0 8 -4 15 -10 15 -5 0 -10 -4 -10 -10 0 -5 -9 -10 -19 -10
-11 0 -21 -6 -24 -12 -5 -18 -36 8 -48 40 -7 19 -14 22 -37 18 -20 -5 -34 0
-52 16 -20 19 -37 23 -85 23 -40 0 -64 -4 -71 -14 -9 -11 -13 -11 -19 -1 -4 7
-2 16 5 20 15 9 4 30 -16 30 -8 0 -14 10 -14 25 0 14 -5 25 -12 25 -6 0 -19 6
-27 14 -9 7 -29 18 -46 23 -28 9 -50 36 -79 98 -8 17 -26 41 -40 54 -22 21
-32 23 -77 18 -28 -4 -59 -13 -69 -22 -9 -8 -22 -15 -30 -15 -7 0 -27 -9 -44
-19 -17 -11 -51 -25 -75 -32 -34 -10 -39 -14 -25 -20 16 -6 14 -8 -11 -14 -43
-11 -85 -43 -85 -65 0 -15 -6 -17 -42 -14 -24 3 -56 11 -73 18 -16 8 -65 23
-108 35 -43 12 -87 31 -98 42 -12 12 -15 19 -7 18 37 -5 42 2 18 21 -14 11
-28 20 -33 20 -4 0 -20 14 -35 31 -15 17 -40 33 -54 34 -40 5 -48 13 -48 47 0
32 -34 112 -57 136 -7 7 -13 17 -13 22 0 5 -10 12 -22 16 -13 3 -30 12 -38 19
-23 20 -110 45 -172 50 -49 4 -65 1 -120 -28 -35 -17 -67 -32 -73 -33 -5 0
-18 -4 -28 -9 -59 -25 -463 66 -475 107 -2 10 -8 15 -14 12 -5 -3 -6 -14 -3
-24 3 -10 2 -21 -3 -24 -5 -3 -16 17 -26 44 -24 67 -68 104 -116 97 -19 -3
-43 -8 -53 -12 -17 -7 -17 -5 2 36 43 96 52 120 68 183 10 36 23 66 30 66 36
0 43 94 14 191 -11 35 -23 109 -26 164 -8 121 -25 207 -66 340 -55 179 -132
304 -246 402 -201 173 -359 248 -631 298 -143 27 -299 31 -457 13z m590 -948
c176 -20 312 -69 445 -161 98 -67 144 -109 164 -147 38 -74 45 -239 21 -467
-9 -77 -20 -225 -25 -330 -9 -197 -28 -323 -57 -389 l-17 -38 -22 25 c-28 33
-37 24 -19 -20 8 -19 10 -31 4 -27 -8 4 -9 -4 -4 -25 4 -20 3 -31 -4 -31 -6 0
-11 9 -11 20 0 41 -18 18 -24 -30 -4 -29 -11 -48 -16 -45 -6 4 -10 13 -10 21
0 8 -4 14 -10 14 -5 0 -10 -15 -10 -32 0 -26 -3 -30 -11 -18 -8 12 -9 9 -5
-12 4 -16 2 -28 -4 -28 -5 0 -10 5 -10 10 0 6 -4 10 -10 10 -5 0 -10 -15 -11
-32 0 -33 0 -33 -11 -8 -11 24 -12 24 -15 3 -2 -12 -10 -26 -17 -32 -25 -21
-27 43 -5 106 11 32 25 76 31 98 6 22 14 47 19 57 5 11 3 20 -6 28 -8 7 -15
18 -15 24 0 6 5 4 10 -4 7 -11 10 -4 10 25 0 41 -36 109 -69 130 -27 16 -112
44 -106 34 8 -12 -2 -11 -26 1 -27 15 -24 -2 6 -30 33 -31 24 -37 -13 -10 -29
22 -102 38 -102 24 0 -4 8 -16 18 -27 13 -15 3 -12 -38 11 -62 34 -105 46
-123 35 -7 -4 -25 -6 -41 -4 -22 2 -28 -1 -23 -12 4 -12 0 -14 -20 -11 -15 3
-31 8 -37 11 -6 4 -5 -1 3 -10 18 -23 8 -32 -19 -17 -12 6 -32 9 -45 6 -13 -3
-27 -2 -30 4 -4 7 -12 7 -23 1 -10 -6 -23 -6 -35 0 -10 6 -28 7 -40 3 -31 -11
-51 -11 -60 1 -6 6 -10 5 -14 -3 -4 -10 -8 -10 -19 -1 -8 6 -25 8 -40 5 -17
-5 -23 -3 -19 4 4 7 -2 7 -19 0 -30 -11 -36 3 -8 19 14 9 14 10 1 11 -8 0 -19
-4 -25 -9 -5 -5 -20 -12 -34 -16 -22 -7 -23 -6 -11 9 18 21 10 20 -38 -5 -22
-11 -45 -18 -50 -15 -5 4 -12 2 -16 -4 -3 -5 -11 -10 -16 -10 -17 0 0 19 44
51 40 29 41 30 12 24 -16 -4 -65 -25 -107 -46 -43 -22 -80 -39 -83 -39 -2 0
12 16 33 35 37 34 27 50 -12 20 -26 -20 -45 -19 -20 0 18 14 16 15 -21 9 -89
-15 -159 -64 -190 -134 -10 -22 -20 -38 -22 -36 -7 7 19 86 29 86 4 0 8 6 8
13 0 7 9 19 20 27 11 8 20 19 20 24 0 25 -72 -63 -83 -102 -17 -55 -5 -177 23
-239 24 -54 24 -57 5 -49 -20 7 -19 5 9 -48 14 -25 27 -61 31 -78 6 -31 6 -32
-8 -13 -8 11 -20 37 -26 58 -7 20 -16 37 -21 37 -5 0 -11 8 -14 18 -2 9 -2
-10 0 -43 6 -67 -2 -70 -15 -4 l-9 44 -1 -45 -2 -45 -26 63 c-15 34 -30 62
-34 62 -4 0 -9 -21 -11 -47 l-3 -48 -20 31 c-11 17 -26 29 -33 26 -8 -2 -18 9
-25 27 -13 35 -23 39 -31 14 -3 -10 -3 -2 -1 17 3 19 0 42 -5 50 -8 12 -10 9
-10 -12 0 -16 -4 -28 -10 -28 -10 0 -13 22 -11 70 l1 25 -12 -22 c-12 -21 -15
-18 -40 45 -15 37 -34 93 -43 124 -17 61 -42 93 -31 42 3 -16 8 -58 12 -94 3
-36 7 -67 10 -69 2 -2 -1 -12 -7 -23 -24 -45 -147 12 -255 119 -118 117 -169
248 -162 417 4 107 24 158 78 194 56 38 109 27 172 -34 60 -58 82 -105 109
-233 24 -110 44 -147 34 -61 -3 30 -2 84 4 120 6 36 16 110 21 165 7 69 21
131 47 205 20 58 39 124 42 148 l6 42 100 4 c82 2 116 9 186 34 112 41 201 62
266 62 60 0 179 -22 242 -44 80 -29 107 -19 103 37 -6 77 -51 109 -176 129
l-76 12 77 44 c148 86 341 155 483 172 94 11 106 11 205 0z m1274 -275 c-8 -7
-108 -9 -116 -2 -3 4 22 7 57 7 35 0 61 -2 59 -5z m831 -259 c0 -2 -7 -6 -15
-10 -8 -3 -15 -1 -15 4 0 6 7 10 15 10 8 0 15 -2 15 -4z m59 -36 c-20 -11
-129 -9 -136 3 -3 6 19 8 61 5 36 -2 66 0 66 5 0 4 5 5 11 1 8 -5 8 -9 -2 -14z
m-1331 -234 c62 -71 66 -195 12 -366 -48 -156 -180 -340 -241 -340 -11 0 -19
2 -19 4 0 2 5 28 10 57 17 85 40 259 40 295 0 20 9 44 23 60 22 26 24 26 41 8
28 -28 15 -94 -34 -162 -21 -31 -38 -57 -36 -59 21 -22 97 102 104 168 4 40 1
51 -19 71 l-24 24 42 64 43 64 0 -50 c0 -27 5 -56 10 -64 8 -11 10 11 8 72 -2
81 -3 86 -20 77 -11 -6 -23 -22 -29 -36 -14 -37 -103 -156 -107 -143 -5 15 26
163 44 205 36 87 101 109 152 51z m89 -118 c-3 -8 -6 -5 -6 6 -1 11 2 17 5 13
3 -3 4 -12 1 -19z m2056 5 c-38 -7 -26 -18 20 -18 44 0 108 -14 117 -26 3 -4
20 -9 38 -12 47 -8 49 -13 7 -21 -39 -8 -125 2 -125 14 0 4 -25 13 -55 20 -71
17 -75 49 -5 48 23 -1 23 -1 3 -5z m-2056 -100 c-2 -16 -4 -5 -4 22 0 28 2 40
4 28 2 -13 2 -35 0 -50z m-2984 -93 c-3 -12 -2 -20 3 -18 5 2 10 0 12 -4 2 -8
-5 -8 -25 -1 -18 7 -16 43 1 43 9 0 12 -7 9 -20z m5233 -25 c33 -30 34 -30 27
-4 -6 21 -5 21 23 6 16 -8 49 -21 74 -28 l45 -12 -48 -9 c-34 -6 -53 -5 -63 3
-8 6 -21 9 -29 5 -22 -8 -84 26 -85 47 0 24 25 21 56 -8z m773 -2 c20 -9 38
-20 41 -24 3 -4 28 -14 55 -24 28 -9 59 -25 70 -35 11 -10 29 -20 39 -22 11
-1 21 -9 24 -16 3 -9 -4 -12 -20 -9 -12 2 -17 2 -10 0 32 -11 5 -23 -54 -23
-55 0 -65 3 -60 15 4 11 -2 15 -22 15 -15 0 -45 9 -66 21 -29 15 -50 19 -75
15 -24 -4 -63 3 -117 19 -86 26 -119 49 -94 65 9 6 17 5 21 -2 6 -9 11 -9 21
-1 30 25 197 29 247 6z m-3030 -38 c2 19 195 24 406 11 145 -9 267 -42 297
-80 10 -11 18 -17 18 -12 0 5 7 2 16 -5 9 -7 28 -15 43 -17 14 -1 46 -9 71
-16 25 -8 52 -14 60 -14 35 -1 195 -47 265 -77 17 -7 55 -20 85 -29 55 -17
100 -49 100 -72 0 -17 32 -27 41 -13 4 7 15 9 25 5 15 -6 16 -9 5 -15 -11 -7
-9 -11 8 -21 13 -6 29 -9 38 -6 8 3 35 -3 60 -14 25 -11 58 -20 73 -20 15 0
44 -7 63 -15 20 -8 49 -15 65 -15 26 0 168 -33 202 -47 8 -3 24 -5 36 -4 11 1
26 -5 34 -13 8 -10 21 -14 36 -10 13 4 30 2 37 -4 6 -5 27 -10 45 -10 34 -1
99 -19 117 -32 6 -4 29 -11 52 -15 30 -5 43 -12 48 -28 6 -19 8 -19 12 -5 3
13 9 15 21 8 27 -14 56 -23 66 -21 5 1 12 -3 16 -8 3 -6 38 -13 77 -17 61 -6
72 -10 77 -28 6 -20 7 -20 20 -2 18 22 36 13 36 -17 0 -13 3 -17 8 -10 4 6 22
10 39 9 35 -2 58 -16 27 -16 -36 0 19 -28 62 -32 30 -2 39 -7 41 -23 2 -11 0
-14 -3 -7 -13 29 -164 4 -186 -31 -5 -9 -10 -9 -20 1 -6 6 -35 12 -64 12 -33
0 -54 5 -57 13 -4 10 -7 10 -18 0 -7 -7 -21 -13 -30 -13 -10 0 -20 -6 -22 -12
-3 -8 -6 -6 -6 5 -1 9 -6 17 -12 17 -5 0 -7 -4 -4 -10 3 -5 4 -10 2 -10 -10 0
-141 80 -147 90 -3 6 -35 13 -71 16 -60 5 -67 4 -114 -27 -27 -18 -53 -32 -57
-31 -5 1 -8 -5 -8 -13 0 -8 -10 -20 -22 -26 -13 -7 -26 -17 -30 -23 -4 -7 -13
-4 -26 7 -17 16 -24 16 -72 4 -29 -8 -58 -20 -64 -28 -6 -8 -18 -14 -26 -14
-10 0 -15 -11 -15 -35 0 -31 -3 -35 -27 -38 -18 -2 -28 -10 -29 -20 -1 -15 -2
-15 -6 1 -5 19 -18 22 -28 7 -11 -18 -25 1 -19 26 4 15 2 24 -6 24 -7 0 -21
11 -32 25 -24 31 -61 51 -111 60 -24 5 -37 3 -37 -4 0 -7 -8 -8 -26 -1 -32 13
-47 13 -39 0 3 -5 1 -18 -4 -27 -6 -10 -11 -14 -11 -10 0 12 -43 -14 -58 -34
-9 -13 -25 -18 -56 -17 -40 0 -45 3 -50 28 -8 44 -43 70 -93 70 -30 0 -45 -5
-49 -15 -12 -29 -19 -14 -19 38 0 50 -2 53 -42 80 -24 16 -53 43 -64 60 -45
65 -108 114 -170 132 -60 16 -75 16 -174 -8 -48 -12 -70 -28 -158 -124 l-20
-22 -61 31 c-50 25 -63 28 -79 18 -33 -20 -137 -31 -179 -18 -21 6 -58 31 -83
55 -37 35 -52 43 -83 43 -21 0 -76 16 -122 36 -47 19 -101 36 -121 37 -37 1
-37 1 -17 19 12 10 16 18 9 18 -7 0 -28 -16 -47 -37 l-34 -36 14 34 c9 23 29
42 60 60 25 14 61 40 79 58 21 20 40 29 49 26 9 -4 19 -1 23 4 3 6 11 8 17 5
7 -4 8 -2 4 5 -6 9 -11 9 -22 0 -28 -23 -26 0 4 43 39 57 85 150 107 218 17
49 19 52 26 30 4 -14 7 -20 8 -15z m2487 -15 c8 0 14 -4 14 -10 0 -5 -13 -10
-30 -10 -21 0 -30 5 -30 16 0 11 5 14 16 10 9 -3 22 -6 30 -6z m49 -10 c3 -5
1 -10 -4 -10 -6 0 -11 5 -11 10 0 6 2 10 4 10 3 0 8 -4 11 -10z m45 -20 c0 -5
-5 -10 -11 -10 -5 0 -7 5 -4 10 3 6 8 10 11 10 2 0 4 -4 4 -10z m-4300 -90 c0
-5 -5 -10 -11 -10 -5 0 -7 5 -4 10 3 6 8 10 11 10 2 0 4 -4 4 -10z m1081 -7
c13 -16 12 -17 -3 -4 -10 7 -18 15 -18 17 0 8 8 3 21 -13z m4201 -18 c7 8 217
14 259 8 30 -4 37 -9 37 -28 0 -20 -6 -23 -45 -23 -25 -1 -55 -7 -67 -15 -14
-8 -37 -11 -68 -7 -27 3 -48 2 -48 -3 0 -4 -8 -7 -18 -5 -11 2 -26 -3 -34 -10
-12 -10 -28 -8 -84 9 -116 36 -168 78 -80 65 25 -4 47 -3 50 3 3 5 16 7 27 4
15 -4 25 0 32 12 9 17 11 17 22 2 7 -9 14 -14 17 -12z m-6384 -10 c-3 -3 -9 2
-12 12 -6 14 -5 15 5 6 7 -7 10 -15 7 -18z m26 -30 c3 -8 1 -15 -4 -15 -6 0
-10 7 -10 15 0 8 2 15 4 15 2 0 6 -7 10 -15z m1476 -81 c140 -4 289 -2 392 6
92 6 172 9 178 5 32 -20 -84 -80 -220 -114 -145 -35 -227 -44 -370 -38 -153 7
-250 28 -375 83 -106 47 -114 49 -121 31 -14 -37 69 -155 154 -221 109 -83
207 -119 357 -132 202 -17 393 82 550 284 26 34 53 61 59 59 25 -8 30 -77 13
-162 -9 -45 -17 -94 -17 -108 0 -14 -3 -33 -6 -42 -6 -13 -9 -14 -16 -3 -7 9
-8 3 -4 -17 3 -16 3 -24 0 -17 -9 20 -24 3 -24 -26 0 -15 -5 -34 -10 -42 -7
-11 -10 1 -11 40 l0 55 -15 -40 c-8 -22 -18 -49 -23 -60 -32 -71 -41 -94 -41
-104 0 -16 -17 -13 -24 4 -10 26 -24 16 -31 -22 -7 -35 -8 -36 -15 -13 l-6 25
-17 -32 c-17 -33 -31 -45 -21 -20 3 8 -2 14 -11 14 -8 0 -15 -6 -15 -14 0 -18
-10 -16 -26 4 -12 17 -14 16 -33 -6 l-21 -24 0 22 c0 20 -2 21 -15 7 -8 -8
-15 -21 -15 -28 0 -7 -9 -2 -20 12 -15 19 -22 22 -28 12 -7 -10 -11 -10 -22 3
-15 17 -40 20 -40 4 0 -8 -5 -8 -15 1 -12 10 -15 10 -15 0 0 -9 -6 -8 -19 4
-11 10 -24 15 -30 12 -5 -4 -13 -1 -16 5 -5 7 -14 0 -26 -18 -15 -22 -19 -24
-19 -10 0 26 -24 16 -28 -11 -4 -29 -11 -28 -40 6 l-24 27 7 -30 c6 -25 5 -28
-6 -17 -20 19 -39 14 -39 -10 0 -19 -2 -20 -10 -8 -8 13 -10 12 -10 -2 0 -20
-20 -25 -20 -5 -1 19 -42 64 -47 50 -3 -8 -11 -5 -24 8 -21 21 -39 25 -39 8 0
-5 -11 3 -25 18 -20 22 -26 25 -34 14 -7 -11 -10 -9 -16 10 -4 13 -14 29 -22
37 -12 12 -13 10 -8 -14 3 -20 -2 -14 -19 21 -14 28 -25 43 -26 35 -1 -24 -37
28 -59 85 -10 28 -28 104 -41 170 -21 115 -22 187 -2 207 25 25 110 37 232 33
69 -3 226 -8 350 -11z m3617 -46 c-4 -14 -45 -12 -81 2 -15 6 -7 9 32 9 39 1
52 -2 49 -11z m283 -27 c0 -11 6 -22 13 -24 7 -3 5 -6 -5 -6 -10 -1 -18 3 -18
8 0 5 -3 16 -6 25 -3 9 -1 16 5 16 6 0 11 -9 11 -19z m2130 8 c24 -5 47 -14
50 -19 3 -5 21 -10 40 -11 42 -3 61 -15 53 -35 -4 -10 3 -14 23 -15 27 -2 28
-2 4 -6 -14 -3 -29 -9 -34 -14 -6 -5 -36 -9 -67 -9 -36 0 -61 -5 -68 -14 -15
-18 -144 -14 -167 5 -10 8 -18 9 -22 2 -12 -18 -77 -34 -134 -32 -49 2 -60 6
-97 41 -46 42 -62 45 -104 23 -23 -11 -32 -12 -48 -2 -10 6 -19 15 -19 18 0 3
46 11 103 18 56 6 127 16 157 21 43 9 222 33 275 39 6 0 30 -4 55 -10z m198
-50 c-2 -6 -8 -10 -13 -10 -5 0 -11 4 -13 10 -2 6 4 11 13 11 9 0 15 -5 13
-11z m32 -3 c0 -3 -4 -8 -10 -11 -5 -3 -10 -1 -10 4 0 6 5 11 10 11 6 0 10 -2
10 -4z m-6663 -28 c-3 -8 -6 -5 -6 6 -1 11 2 17 5 13 3 -3 4 -12 1 -19z m676
-15 c-7 -2 -21 -2 -30 0 -10 3 -4 5 12 5 17 0 24 -2 18 -5z m108 -10 c16 -10
28 -24 27 -32 -4 -22 -117 -96 -185 -121 -93 -35 -176 -44 -267 -30 -138 20
-257 76 -336 155 -36 37 -37 47 -2 18 91 -76 143 -107 156 -92 8 9 8 10 -1 5
-7 -4 -13 -2 -13 4 0 7 8 9 23 4 12 -4 30 -8 39 -9 10 -1 21 -4 24 -8 4 -4 17
-7 29 -7 12 0 24 -3 28 -6 8 -8 152 -9 217 -1 32 4 61 3 70 -3 10 -6 11 -10 3
-10 -7 0 -13 -4 -13 -9 0 -4 15 -3 34 3 19 6 32 15 29 20 -3 5 -1 6 5 2 14 -8
66 17 101 50 14 13 29 24 33 24 5 0 8 7 8 15 0 9 -19 20 -47 29 -40 12 -43 15
-20 15 16 1 42 -7 58 -16z m-173 0 c-10 -2 -28 -2 -40 0 -13 2 -5 4 17 4 22 1
32 -1 23 -4z m-1263 -111 c-5 -5 -25 43 -25 61 1 7 7 -3 16 -22 8 -19 12 -36
9 -39z m1345 34 c0 -11 -19 -15 -25 -6 -3 5 1 10 9 10 9 0 16 -2 16 -4z m623
-37 c-8 -16 -17 -28 -19 -26 -7 6 18 57 27 57 4 0 1 -14 -8 -31z m-656 15 c-3
-3 -12 -4 -19 -1 -8 3 -5 6 6 6 11 1 17 -2 13 -5z m598 -104 c-24 -26 -32 -18
-9 9 10 11 20 18 23 16 2 -3 -4 -14 -14 -25z m-42 -50 c-10 -11 -19 -20 -21
-20 -1 0 2 9 8 20 6 11 15 20 20 20 6 0 2 -9 -7 -20z m-1759 -50 c-6 -5 -24
21 -24 34 0 6 6 1 14 -10 8 -10 12 -21 10 -24z m1711 -10 c-10 -11 -22 -20
-26 -20 -4 0 2 11 14 24 12 14 24 23 26 20 2 -2 -4 -13 -14 -24z m3459 4 c4
-10 1 -14 -6 -12 -15 5 -23 28 -10 28 5 0 13 -7 16 -16z m-184 -26 c0 -7 -4
-19 -9 -27 -11 -17 -25 3 -17 24 7 18 26 20 26 3z m-4840 -69 c104 -99 318
-257 420 -312 122 -65 265 -92 451 -85 l114 4 100 54 c71 39 120 75 168 123
67 67 68 67 62 35 -3 -18 1 -66 9 -107 12 -64 12 -81 0 -129 -28 -107 -81
-163 -210 -223 -109 -52 -188 -69 -317 -69 -363 0 -829 213 -993 454 l-35 51
34 30 c19 17 45 48 59 70 31 50 62 141 54 160 -10 28 9 15 84 -56z m1492 20
c-9 -12 -28 -32 -42 -46 l-25 -24 33 -30 c19 -17 32 -32 30 -34 -2 -2 -20 12
-41 30 l-38 34 43 45 c42 46 73 65 40 25z m3471 -11 c4 -12 4 -24 2 -27 -3 -2
-5 1 -5 7 0 7 -7 12 -15 12 -8 0 -15 7 -15 15 0 23 27 18 33 -7z m-7263 3 c0
-5 -7 -11 -15 -15 -15 -5 -20 5 -8 17 9 10 23 9 23 -2z m1600 -265 c0 -2 -7
-6 -15 -10 -8 -3 -15 -1 -15 4 0 6 7 10 15 10 8 0 15 -2 15 -4z m7786 -126
c29 0 33 -3 31 -22 -5 -29 -23 -34 -37 -9 -8 16 -17 19 -40 14 -17 -3 -30 -1
-30 4 0 16 13 24 28 18 7 -3 29 -5 48 -5z m-116 -42 c0 -19 -2 -20 -10 -8 -5
8 -10 11 -11 5 -3 -32 -10 -50 -29 -70 -22 -24 -40 -30 -125 -45 -126 -23
-155 -26 -170 -18 -18 11 -135 -1 -135 -13 0 -18 -16 -8 -32 20 -9 16 -28 37
-44 47 l-27 18 -33 -39 c-19 -21 -34 -33 -34 -27 0 7 -11 12 -25 12 -14 0 -25
-5 -25 -11 0 -18 -63 1 -89 27 l-24 24 52 0 c29 0 64 6 79 14 15 7 74 16 132
20 58 3 119 9 135 11 32 6 210 17 285 18 25 1 52 -2 61 -6 11 -5 19 0 29 18
17 31 40 33 40 3z m-1851 -224 c177 -26 275 -55 455 -137 l98 -45 -48 -21
c-99 -44 -140 -111 -113 -185 9 -26 22 -39 46 -48 l32 -12 -33 -24 c-26 -18
-58 -62 -72 -100 -1 -1 -21 16 -45 39 -24 22 -34 36 -21 30 12 -7 22 -8 22 -4
-1 11 -85 63 -101 62 -8 0 -4 -5 9 -11 12 -6 22 -15 22 -20 0 -4 -24 5 -53 22
-75 42 -247 96 -354 110 -306 42 -692 -101 -950 -352 -29 -28 -53 -45 -53 -39
0 7 -5 9 -12 5 -7 -4 20 24 61 63 43 42 79 69 87 66 10 -4 12 0 7 13 -5 14 -3
16 11 11 9 -4 15 -3 12 2 -8 12 19 33 29 23 5 -4 5 -2 1 5 -3 7 2 14 14 18 11
3 20 11 20 16 0 5 7 9 15 9 8 0 15 5 15 11 0 5 5 7 10 4 6 -3 10 -2 10 4 0 5
14 12 30 16 18 4 27 11 23 18 -4 7 0 8 11 4 11 -5 15 -3 10 5 -5 8 -2 9 10 5
11 -5 15 -3 10 5 -5 8 -2 9 10 5 11 -4 15 -3 10 4 -4 7 0 9 12 5 11 -3 26 -1
34 4 8 5 11 10 5 10 -5 0 1 7 13 16 13 9 32 14 43 11 10 -3 17 -1 13 4 -3 5 3
9 13 9 10 0 47 9 82 20 89 28 242 44 336 35 46 -4 73 -10 65 -15 -14 -9 0 -11
85 -12 35 0 44 -3 30 -9 -18 -7 -18 -8 5 -9 14 -2 31 -2 38 -1 6 1 12 -3 12
-9 0 -7 8 -9 21 -5 16 5 19 4 14 -6 -6 -9 -3 -11 8 -6 10 3 17 3 17 -2 0 -9
79 -36 99 -32 7 1 10 -2 7 -8 -9 -14 14 -25 27 -12 7 7 1 15 -24 25 -18 8 -37
12 -41 10 -5 -3 -8 0 -8 5 0 6 -7 11 -15 11 -17 0 -56 20 -66 34 -4 5 -12 5
-19 1 -7 -4 -16 -2 -19 4 -4 7 -52 21 -107 32 -135 28 -337 22 -469 -14 -214
-58 -367 -141 -506 -272 -26 -24 -50 -41 -54 -37 -5 4 -5 1 -1 -5 4 -7 3 -13
-3 -13 -5 0 -46 -42 -91 -92 -91 -104 -90 -102 -109 -140 -8 -16 -18 -28 -23
-28 -4 0 -8 -8 -8 -17 0 -10 20 11 44 47 49 74 116 145 125 133 4 -4 5 -7 2
-6 -2 1 -17 -16 -33 -38 -16 -22 -35 -42 -43 -46 -8 -3 -13 -9 -10 -13 3 -4
-4 -18 -14 -31 -10 -13 -37 -58 -60 -99 -24 -41 -48 -78 -54 -82 -7 -4 -9 -8
-4 -8 4 0 0 -14 -8 -30 -9 -17 -13 -36 -9 -42 5 -7 3 -8 -6 -3 -9 6 -12 4 -8
-7 4 -8 1 -15 -6 -15 -8 0 -10 11 -8 29 2 15 8 25 13 22 5 -3 6 3 2 12 -4 12
-3 15 5 10 8 -5 10 -1 5 10 -5 13 -3 15 7 9 9 -5 11 -4 6 4 -4 6 -2 19 5 27 6
8 9 17 6 21 -9 8 -69 -123 -113 -243 -34 -96 -74 -270 -74 -321 l1 -28 14 30
c17 38 18 29 15 -137 -2 -123 5 -192 18 -184 4 2 8 -20 8 -48 1 -29 12 -77 24
-107 28 -70 73 -159 79 -154 2 2 -6 21 -18 41 -12 20 -20 38 -18 41 3 2 19
-22 37 -54 18 -32 49 -78 69 -103 63 -79 169 -182 181 -175 6 3 32 -6 58 -22
75 -46 116 -63 220 -90 312 -80 727 32 1017 276 203 172 354 387 430 614 54
162 69 258 69 449 1 98 4 178 9 178 6 0 11 -22 9 -41 -1 -3 5 -6 11 -6 7 0 30
-11 52 -25 22 -14 63 -32 90 -41 28 -10 73 -32 100 -50 l50 -32 3 -70 c5 -118
-27 -294 -78 -420 -5 -11 -20 -51 -34 -89 -38 -98 -133 -275 -195 -362 -59
-83 -103 -134 -165 -193 -32 -31 -78 -75 -102 -98 -197 -187 -540 -368 -815
-428 -87 -19 -245 -24 -364 -12 -86 9 -97 1 -18 -13 38 -7 32 -8 -32 -3 -44 3
-88 9 -97 14 -23 12 -51 11 -43 -1 3 -5 17 -10 30 -10 13 0 27 -5 30 -11 4 -6
19 -9 33 -8 15 1 39 -4 54 -11 23 -11 30 -11 45 1 12 10 15 10 9 1 -6 -10 3
-13 36 -13 23 1 57 0 73 0 17 -1 41 1 55 5 21 5 22 5 5 -3 -27 -13 94 -3 205
16 47 8 99 17 115 20 17 2 34 9 40 14 5 5 23 9 40 9 17 0 36 5 42 11 6 6 19 9
29 7 23 -5 -98 -43 -221 -70 -120 -25 -341 -35 -442 -19 -291 47 -475 139
-676 343 -48 49 -92 86 -97 83 -23 -15 -167 241 -214 383 -55 162 -71 271 -70
472 0 150 4 192 26 295 57 262 149 486 285 695 235 361 676 643 1116 715 180
29 295 31 446 9z m784 -121 c-13 -2 -33 -2 -45 0 -13 2 -3 4 22 4 25 0 35 -2
23 -4z m-122 -14 c-16 -6 -28 -6 -35 1 -7 7 1 10 25 9 32 0 33 -1 10 -10z
m189 -7 c0 -5 10 -14 23 -20 12 -6 17 -11 11 -11 -7 -1 -22 8 -35 19 -13 10
-18 19 -11 20 6 0 12 -4 12 -8z m69 -94 c130 -88 239 -191 297 -285 l18 -28
-24 20 c-14 11 -32 27 -40 35 -42 43 -159 120 -196 129 -56 14 -198 14 -266 0
-29 -6 -88 -22 -132 -36 -90 -29 -126 -25 -159 18 -23 32 -16 79 16 110 25 23
151 85 212 104 22 7 66 13 97 14 55 1 60 -1 177 -81z m16 24 c-6 -6 -35 18
-35 29 0 5 9 1 20 -8 11 -9 17 -19 15 -21z m-7815 14 c0 -2 -8 -10 -17 -17
-16 -13 -17 -12 -4 4 13 16 21 21 21 13z m-85 -76 c-27 -27 -52 -50 -56 -50
-8 0 93 99 101 100 2 0 -18 -22 -45 -50z m6910 -116 c252 -63 417 -192 523
-411 16 -34 39 -75 51 -91 11 -16 27 -58 35 -92 8 -35 20 -66 27 -71 20 -12
24 -229 5 -353 -28 -184 -132 -453 -235 -604 -52 -76 -197 -231 -271 -286 -63
-48 -216 -142 -275 -169 -64 -30 -204 -75 -285 -93 -112 -25 -304 -22 -417 6
-219 55 -421 216 -518 414 -72 145 -88 222 -89 411 0 225 35 385 130 581 216
445 586 723 1034 778 59 7 222 -5 285 -20z m1123 -47 c152 -122 199 -173 221
-240 20 -60 41 -175 41 -227 0 -21 -4 -19 -26 20 -14 25 -42 62 -62 84 -48 51
-186 153 -231 172 -85 36 -236 28 -393 -22 -113 -36 -154 -34 -195 11 -71 76
-35 131 129 200 141 59 166 64 318 62 l125 -2 73 -58z m-3363 -48 c9 -17 14
-33 12 -36 -4 -3 -37 53 -37 64 0 11 12 -1 25 -28z m38 -76 c3 -16 8 -37 12
-48 4 -13 1 -12 -8 5 -21 36 -30 70 -19 70 5 0 12 -12 15 -27z m751 -18 c-9
-14 -18 -25 -21 -25 -5 0 5 18 20 38 17 22 18 13 1 -13z m3321 15 c-3 -5 -13
-10 -21 -10 -8 0 -14 5 -14 10 0 6 9 10 21 10 11 0 17 -4 14 -10z m-3995 -60
c0 -5 -5 -10 -11 -10 -5 0 -7 5 -4 10 3 6 8 10 11 10 2 0 4 -4 4 -10z m3180
-22 c73 -22 241 -164 291 -248 11 -18 27 -39 34 -47 36 -35 31 -201 -11 -365
-20 -79 -47 -143 -113 -274 -96 -187 -138 -249 -230 -339 l-61 -59 41 92 c69
157 126 420 117 542 -4 59 -4 60 16 42 11 -9 26 -24 33 -32 9 -11 12 -12 13
-2 0 7 -22 37 -49 65 -54 58 -159 117 -281 161 -96 35 -120 55 -127 106 -3 22
-3 40 0 40 3 0 21 -16 40 -35 27 -27 43 -35 70 -35 20 0 39 5 42 10 4 6 -10
10 -34 10 -43 0 -81 28 -81 60 0 17 -4 17 135 26 179 12 232 -10 355 -149 33
-37 60 -64 60 -59 0 19 -87 128 -126 159 -86 67 -89 68 -319 69 -172 0 -215 3
-240 16 -43 23 -65 51 -72 91 -4 30 -1 39 28 67 61 57 136 86 264 100 77 8
152 4 205 -12z m-3220 -16 c0 -15 -2 -15 -10 -2 -13 20 -13 33 0 25 6 -3 10
-14 10 -23z m648 -2 c-22 -30 -35 -41 -22 -17 9 16 36 47 41 47 2 0 -6 -13
-19 -30z m-624 -72 c8 -29 14 -54 12 -56 -4 -3 -36 86 -36 100 0 21 10 3 24
-44z m44 -159 c-3 -8 -7 -3 -11 10 -4 17 -3 21 5 13 5 -5 8 -16 6 -23z m3519
-61 c-3 -7 -5 -2 -5 12 0 14 2 19 5 13 2 -7 2 -19 0 -25z m-3500 0 c-3 -8 -6
-5 -6 6 -1 11 2 17 5 13 3 -3 4 -12 1 -19z m2716 -58 c3 -11 1 -18 -4 -14 -5
3 -9 12 -9 20 0 20 7 17 13 -6z m75 -45 c-3 -3 -9 2 -12 12 -6 14 -5 15 5 6 7
-7 10 -15 7 -18z m729 -42 c-3 -10 -5 -4 -5 12 0 17 2 24 5 18 2 -7 2 -21 0
-30z m-3419 -99 c14 -9 22 -11 22 -4 0 11 99 -37 112 -55 5 -6 8 -5 8 3 0 7 5
10 11 6 6 -3 15 0 20 7 15 23 11 -10 -10 -92 -11 -41 -23 -96 -27 -124 -5 -27
-9 -53 -10 -57 -1 -5 -2 -29 -3 -55 l-2 -48 -24 45 c-24 43 -145 401 -145 424
1 6 6 1 13 -12 7 -12 23 -29 35 -38z m574 -59 c-20 -52 -21 -53 -20 -16 1 17
5 28 11 24 6 -4 7 4 3 21 -8 33 4 59 14 30 4 -10 1 -37 -8 -59z m2805 -67 c-3
-8 -6 -5 -6 6 -1 11 2 17 5 13 3 -3 4 -12 1 -19z m-2837 -35 c0 -10 -4 -14 -8
-8 -4 6 -11 13 -16 18 -5 4 -2 7 7 7 10 0 17 -8 17 -17z m-17 -69 l-7 -39 -7
35 c-5 19 -6 44 -2 54 10 34 23 -6 16 -50z m2829 24 c-8 -8 -9 -4 -5 13 4 13
8 18 11 10 2 -7 -1 -18 -6 -23z m-2842 -85 c0 -8 -4 -12 -9 -8 -6 3 -8 -10 -6
-32 4 -35 4 -36 -4 -8 -13 47 -12 62 4 62 8 0 15 -7 15 -14z m2547 -15 c-3 -8
-6 -5 -6 6 -1 11 2 17 5 13 3 -3 4 -12 1 -19z m218 -68 c-9 -16 -18 -30 -21
-30 -2 0 2 14 11 30 9 17 18 30 21 30 2 0 -2 -13 -11 -30z m-238 -32 c-3 -8
-6 -5 -6 6 -1 11 2 17 5 13 3 -3 4 -12 1 -19z m653 -2 c0 -7 -7 -19 -15 -26
-16 -13 -20 -3 -9 24 8 20 24 21 24 2z m-686 -130 c-3 -15 -8 -25 -11 -23 -2
3 -1 17 3 31 3 15 8 25 11 23 2 -3 1 -17 -3 -31z m-34 -95 c-27 -69 -70 -154
-76 -149 -2 3 9 29 25 59 16 30 36 75 46 102 10 26 20 46 22 44 2 -3 -5 -28
-17 -56z m-89 -184 c-10 -9 -11 -8 -5 6 3 10 9 15 12 12 3 -3 0 -11 -7 -18z
m-124 -150 c-8 -15 -18 -23 -22 -19 -5 4 -5 -2 -1 -13 6 -15 4 -17 -5 -8 -9 9
-6 18 12 41 29 35 34 35 16 -1z m33 -21 c0 -2 -8 -10 -17 -17 -16 -13 -17 -12
-4 4 13 16 21 21 21 13z m-74 -43 c-20 -52 -133 -198 -215 -280 -90 -89 -111
-105 -111 -83 0 5 -7 7 -15 4 -8 -4 -15 -10 -15 -15 0 -4 7 -6 15 -3 29 11 15
-11 -23 -36 -20 -14 -43 -30 -50 -37 -7 -7 -26 -20 -42 -30 -17 -9 -30 -21
-30 -25 0 -4 -4 -8 -10 -8 -5 0 -31 -13 -57 -30 -46 -30 -69 -27 -56 7 4 10 8
11 13 3 10 -16 42 0 35 17 -4 12 0 14 21 9 17 -5 23 -3 19 4 -3 6 3 10 15 10
15 0 20 5 17 14 -4 10 0 12 14 9 10 -3 19 0 19 6 0 6 -5 11 -12 11 -6 0 -8 3
-5 6 4 4 13 1 21 -5 9 -8 16 -8 20 -2 4 5 -2 15 -11 21 -15 8 -13 9 10 4 17
-4 27 -2 27 5 0 6 8 11 17 11 9 0 13 3 10 6 -11 12 34 64 54 64 11 0 18 4 15
9 -4 5 4 7 16 4 13 -3 20 -2 16 2 -5 5 1 15 13 23 12 8 18 20 15 29 -4 10 -2
13 8 10 15 -6 87 60 114 106 9 15 20 27 24 27 4 0 8 5 8 10 0 6 10 21 23 34
12 12 33 41 47 64 26 44 37 54 26 25z m-6119 -19 c-3 -3 -12 -4 -19 -1 -8 3
-5 6 6 6 11 1 17 -2 13 -5z m-464 -11 c-7 -2 -19 -2 -25 0 -7 3 -2 5 12 5 14
0 19 -2 13 -5z m4093 -60 c-3 -4 -6 -1 -6 6 0 7 -4 9 -10 6 -6 -4 -7 1 -3 11
6 15 7 15 15 -1 6 -9 7 -19 4 -22z m2422 -80 c-37 -54 -218 -236 -226 -229 -2
3 17 25 43 48 74 66 150 148 193 209 7 11 15 19 18 19 3 0 -10 -21 -28 -47z
m-5171 -139 c-3 -3 -12 -4 -19 -1 -8 3 -5 6 6 6 11 1 17 -2 13 -5z m2983 -45
c0 -6 46 -57 103 -113 236 -236 511 -336 887 -324 82 3 123 2 95 -3 -27 -4
-104 -8 -170 -8 -339 -2 -644 127 -865 367 -69 74 -80 92 -60 92 6 0 10 -5 10
-11z m1930 -73 c0 -2 -12 -12 -27 -21 l-28 -18 19 21 c17 20 36 29 36 18z
m-5770 -81 c-4 -20 -16 -47 -25 -61 -18 -28 -86 -63 -122 -64 -27 0 -41 -19
-16 -21 50 -4 112 5 149 21 45 19 124 95 124 119 0 9 24 -8 58 -41 67 -66 136
-111 204 -134 45 -15 51 -15 66 -1 8 9 15 30 15 47 0 31 11 40 20 16 3 -8 45
-44 92 -81 88 -69 110 -74 97 -21 -6 27 -3 24 54 -54 26 -36 63 -103 82 -150
32 -76 36 -99 43 -220 4 -74 15 -204 24 -289 17 -164 15 -217 -16 -321 -28
-98 -83 -181 -184 -279 -97 -94 -183 -151 -272 -183 -71 -24 -222 -42 -288
-33 -27 4 -66 6 -85 6 -45 -2 -164 23 -250 51 -180 58 -358 185 -456 323 -20
29 -21 29 -39 11 -22 -21 -58 -36 -89 -36 -45 0 -143 60 -199 120 -69 75 -99
148 -100 245 -1 78 15 119 59 154 52 41 88 28 189 -70 78 -75 90 -70 90 38 0
43 -4 101 -8 128 -7 41 -6 48 4 38 22 -22 24 -15 21 62 -2 41 -1 91 2 110 4
18 49 98 101 176 52 78 95 148 95 156 0 7 4 13 9 13 5 0 9 -11 9 -25 0 -33 22
-85 36 -85 6 0 39 35 73 78 34 42 75 90 92 106 l31 30 0 -52 c0 -29 3 -52 7
-52 3 0 29 21 58 48 28 26 81 68 118 94 37 26 79 65 94 87 33 46 44 45 33 -4z
m5701 31 c-31 -37 -251 -169 -251 -151 0 3 12 10 26 16 28 10 189 114 212 136
18 17 27 17 13 -1z m-1780 -63 c13 -16 12 -17 -3 -4 -10 7 -18 15 -18 17 0 8
8 3 21 -13z m1559 -37 c0 -11 -19 -15 -25 -6 -3 5 1 10 9 10 9 0 16 -2 16 -4z
m-33 -22 c-3 -3 -12 -4 -19 -1 -8 3 -5 6 6 6 11 1 17 -2 13 -5z m-82 -40 c-27
-14 -61 -23 -75 -21 -20 3 -18 4 8 6 19 0 31 5 27 11 -4 6 5 10 19 10 14 0 26
5 26 10 0 6 10 10 23 9 16 0 9 -7 -28 -25z m-10 -40 c-27 -13 -57 -24 -65 -23
-16 0 88 47 105 47 6 0 -12 -10 -40 -24z m-85 -29 c0 -8 -195 -64 -245 -70
-32 -3 -14 4 50 19 55 14 118 31 140 40 44 16 55 18 55 11z m-572 -22 c-10 -2
-28 -2 -40 0 -13 2 -5 4 17 4 22 1 32 -1 23 -4z m-5961 -923 c10 -490 7 -606
-27 -980 -8 -82 -8 -76 -4 50 6 146 -1 192 -9 67 -3 -37 -8 -71 -12 -75 -4 -4
-5 21 -2 56 4 38 3 62 -3 62 -6 0 -10 -19 -11 -42 0 -24 -2 -52 -4 -63 -2 -11
-6 -55 -10 -98 -4 -42 -11 -90 -16 -105 -7 -20 -8 -14 -4 25 18 177 44 767 50
1132 2 145 6 265 7 267 2 2 5 -31 7 -72 4 -126 16 -121 16 7 0 65 -3 119 -7
119 -5 0 -8 -9 -8 -20 0 -11 -4 -20 -10 -20 -17 0 -11 26 13 52 12 14 23 25
24 24 1 -1 5 -174 10 -386z m2201 349 c26 -48 3 -280 -31 -314 -7 -7 -8 -4 -3
8 3 10 1 83 -6 161 -6 79 -8 151 -5 160 9 23 28 16 45 -15z m-1304 -869 c52
-29 190 -75 286 -96 113 -24 369 -25 453 -2 l57 16 0 -98 c0 -54 3 -106 6
-115 8 -21 -71 -97 -152 -145 -57 -34 -61 -35 -164 -35 -165 1 -319 49 -459
144 -33 23 -72 57 -87 76 l-27 36 22 23 c21 22 22 32 19 120 -2 53 0 96 4 96
4 0 23 -9 42 -20z m-354 -360 c0 -5 -5 -10 -11 -10 -5 0 -7 5 -4 10 3 6 8 10
11 10 2 0 4 -4 4 -10z m1160 -5 c-7 -8 -17 -15 -22 -15 -11 0 14 29 26 30 5 0
3 -7 -4 -15z m-1220 -34 c0 -5 -7 -12 -16 -15 -14 -5 -15 -4 -4 9 14 17 20 19
20 6z m25 -41 c13 -6 15 -9 5 -9 -8 0 -22 4 -30 9 -18 12 -2 12 25 0z m-568
-32 c-3 -8 -6 -5 -6 6 -1 11 2 17 5 13 3 -3 4 -12 1 -19z m613 -39 c0 -5 -4
-9 -10 -9 -5 0 -10 7 -10 16 0 8 5 12 10 9 6 -3 10 -10 10 -16z m558 -63 c5
-37 -14 -56 -23 -25 -4 13 -16 36 -26 51 -27 37 -24 43 14 21 22 -13 33 -28
35 -47z m-1175 34 c3 -11 1 -18 -4 -14 -5 3 -9 12 -9 20 0 20 7 17 13 -6z m24
-52 c-3 -7 -5 -2 -5 12 0 14 2 19 5 13 2 -7 2 -19 0 -25z m-93 -93 c6 -17 -5
-20 -19 -6 -6 5 -19 11 -30 14 -13 3 -10 5 11 6 20 1 34 -5 38 -14z"/>
<path d="M3710 7544 c-91 -30 -142 -74 -167 -146 -20 -58 -9 -58 21 -1 37 73
62 89 30 19 -14 -32 -24 -59 -22 -61 2 -3 33 5 69 16 141 45 292 34 435 -31
82 -37 88 -37 79 -2 -25 103 -89 161 -212 192 -72 18 -196 25 -233 14z"/>
<path d="M2612 7255 c-72 -20 -105 -39 -147 -82 -35 -36 -56 -86 -47 -112 3
-9 10 -4 21 16 26 48 44 68 90 101 53 38 100 52 179 53 68 1 101 -13 155 -67
40 -40 45 -36 23 17 -30 72 -158 106 -274 74z"/>
<path d="M3738 7250 c-77 -23 -159 -111 -158 -169 l1 -26 16 30 c21 41 81 103
118 122 17 9 54 16 86 16 96 0 192 -72 205 -154 8 -50 24 -61 24 -16 0 43 -31
115 -63 145 -52 49 -160 73 -229 52z"/>
<path d="M2673 7189 c-38 -24 -73 -92 -73 -140 0 -43 32 -97 66 -109 42 -16
103 -12 134 10 29 21 60 84 60 124 0 37 -27 92 -56 115 -34 27 -89 27 -131 0z
m104 -36 c13 -20 12 -23 -11 -38 -43 -29 -90 17 -54 53 18 18 48 11 65 -15z"/>
<path d="M3722 7178 c-39 -19 -65 -74 -65 -135 0 -64 21 -99 75 -126 97 -48
183 71 134 186 -28 65 -94 100 -144 75z m32 -44 c22 -8 20 -27 -4 -49 -32 -29
-78 6 -50 40 13 16 29 19 54 9z"/>
<path d="M3451 7137 c-53 -124 -55 -203 -8 -302 19 -39 37 -83 41 -99 13 -54
-19 -110 -90 -152 -36 -22 -6 -25 35 -4 91 46 102 117 40 253 -40 85 -41 93
-36 161 3 39 14 95 26 125 25 67 19 81 -8 18z"/>
<path d="M2520 6931 c29 -17 140 -51 162 -50 13 1 -1 7 -30 14 -28 7 -70 20
-92 29 -44 17 -64 21 -40 7z"/>
<path d="M1801 6896 c-24 -26 -41 -107 -30 -146 4 -14 7 -22 8 -19 16 101 38
159 60 159 5 0 30 -30 56 -67 l47 -66 -30 -23 c-41 -32 -69 -123 -52 -165 15
-36 113 -125 119 -107 2 6 -5 17 -15 25 -94 67 -109 138 -45 210 l28 32 22
-25 c44 -51 32 -13 -24 77 -62 100 -70 110 -101 127 -18 9 -25 7 -43 -12z"/>
<path d="M3948 6913 c7 -3 16 -2 19 1 4 3 -2 6 -13 5 -11 0 -14 -3 -6 -6z"/>
<path d="M3686 6898 c3 -4 9 -8 15 -8 5 0 9 4 9 8 0 5 -7 9 -15 9 -8 0 -12 -4
-9 -9z"/>
<path d="M3880 6900 l-25 -8 27 -1 c15 -1 30 4 33 9 7 11 0 11 -35 0z"/>
<path d="M2718 6883 c6 -2 18 -2 25 0 6 3 1 5 -13 5 -14 0 -19 -2 -12 -5z"/>
<path d="M3753 6880 c21 -4 53 -4 70 0 23 5 13 7 -38 7 -57 0 -63 -1 -32 -7z"/>
<path d="M3931 6886 c2 -2 20 -6 39 -10 25 -4 31 -3 20 4 -14 9 -69 15 -59 6z"/>
<path d="M1825 6850 c-3 -5 -2 -10 4 -10 5 0 13 5 16 10 3 6 2 10 -4 10 -5 0
-13 -4 -16 -10z"/>
<path d="M3863 6833 c9 -2 25 -2 35 0 9 3 1 5 -18 5 -19 0 -27 -2 -17 -5z"/>
<path d="M1966 6642 c-3 -6 5 -34 19 -64 14 -29 23 -42 21 -28 -8 44 -33 103
-40 92z"/>
<path d="M3132 6618 c-25 -13 -24 -33 1 -32 87 4 82 2 62 24 -20 22 -30 24
-63 8z"/>
<path d="M3210 6626 c0 -2 7 -6 15 -10 8 -3 15 -1 15 4 0 6 -7 10 -15 10 -8 0
-15 -2 -15 -4z"/>
<path d="M3170 6563 c0 -5 11 -13 25 -20 27 -12 33 -5 13 15 -13 13 -38 16
-38 5z"/>
<path d="M3230 6528 c0 -6 3 -8 6 -5 4 3 15 2 25 -3 10 -6 20 -6 23 -1 3 5 -1
12 -10 15 -25 9 -44 7 -44 -6z"/>
<path d="M4071 6254 c0 -11 3 -14 6 -6 3 7 2 16 -1 19 -3 4 -6 -2 -5 -13z"/>
<path d="M4041 6174 c0 -11 3 -14 6 -6 3 7 2 16 -1 19 -3 4 -6 -2 -5 -13z"/>
<path d="M3911 6044 c0 -11 3 -14 6 -6 3 7 2 16 -1 19 -3 4 -6 -2 -5 -13z"/>
<path d="M4430 6956 c0 -8 4 -17 9 -20 5 -4 7 3 4 14 -6 23 -13 26 -13 6z"/>
<path d="M4257 6600 c-5 -25 -11 -54 -13 -65 -3 -13 1 -10 11 8 9 16 15 44 13
65 l-3 37 -8 -45z"/>
<path d="M4317 6280 c-16 -17 -25 -30 -20 -30 10 0 63 45 63 54 0 13 -16 4
-43 -24z"/>
<path d="M5402 6243 c4 -24 37 -26 35 -2 -1 11 -9 19 -20 19 -12 0 -17 -6 -15
-17z"/>
<path d="M5470 6250 c0 -5 12 -10 26 -10 14 0 23 4 19 10 -3 6 -15 10 -26 10
-10 0 -19 -4 -19 -10z"/>
<path d="M4265 6240 c-3 -5 -1 -10 4 -10 6 0 11 5 11 10 0 6 -2 10 -4 10 -3 0
-8 -4 -11 -10z"/>
<path d="M5833 6173 c-23 -9 8 -27 72 -44 60 -15 95 -15 95 1 0 9 -35 23 -60
25 -8 0 -25 6 -37 13 -22 12 -48 14 -70 5z"/>
<path d="M6130 6071 c0 -5 -3 -16 -6 -24 -6 -17 26 -33 36 -17 5 7 21 9 44 5
36 -7 47 -20 24 -28 -7 -2 11 -2 40 1 43 4 52 2 52 -12 0 -27 37 -19 44 9 7
29 26 34 27 8 0 -11 3 -13 6 -5 2 6 12 12 21 13 27 1 -40 26 -75 28 -7 1 -13
9 -13 19 0 9 -4 13 -8 7 -9 -13 -162 -17 -162 -4 0 5 -7 9 -15 9 -8 0 -15 -4
-15 -9z"/>
<path d="M6480 6005 c0 -11 11 -15 48 -14 27 1 36 4 22 6 -14 3 -29 9 -34 14
-15 14 -36 11 -36 -6z"/>
<path d="M6155 5990 c3 -5 15 -10 25 -10 10 0 22 5 25 10 4 6 -7 10 -25 10
-18 0 -29 -4 -25 -10z"/>
<path d="M6240 5965 c0 -16 9 -19 34 -9 25 9 19 24 -9 24 -16 0 -25 -6 -25
-15z"/>
<path d="M8345 6440 c4 -6 11 -8 16 -5 14 9 11 15 -7 15 -8 0 -12 -5 -9 -10z"/>
<path d="M3375 5865 c-28 -7 -111 -14 -187 -14 -75 -1 -139 -5 -142 -9 -8 -14
35 -44 83 -59 95 -28 200 -7 272 57 48 43 47 44 -26 25z"/>
<path d="M3005 6050 c-16 -4 -25 -9 -20 -10 36 -7 52 -5 52 7 0 7 -1 12 -1 12
-1 -1 -14 -5 -31 -9z"/>
<path d="M2390 5733 c0 -6 11 -18 24 -26 13 -9 31 -23 40 -32 9 -9 16 -13 16
-8 0 5 -10 17 -22 27 -13 10 -31 26 -40 34 -10 8 -18 10 -18 5z"/>
<path d="M2492 5644 c10 -10 20 -15 24 -12 3 4 -5 12 -18 18 -22 12 -22 12 -6
-6z"/>
<path d="M2550 5606 c0 -2 8 -10 18 -17 15 -13 16 -12 3 4 -13 16 -21 21 -21
13z"/>
<path d="M2640 5530 c8 -5 20 -10 25 -10 6 0 3 5 -5 10 -8 5 -19 10 -25 10 -5
0 -3 -5 5 -10z"/>
<path d="M2964 5115 c22 -17 40 -20 32 -6 -3 5 -16 11 -28 14 -22 6 -22 5 -4
-8z"/>
<path d="M7355 5100 c252 -13 414 -52 587 -141 31 -16 63 -29 70 -28 25 0
-158 88 -239 114 -146 46 -210 56 -398 60 l-180 3 160 -8z"/>
<path d="M7133 5093 c9 -2 23 -2 30 0 6 3 -1 5 -18 5 -16 0 -22 -2 -12 -5z"/>
<path d="M7078 5083 c7 -3 16 -2 19 1 4 3 -2 6 -13 5 -11 0 -14 -3 -6 -6z"/>
<path d="M7128 4783 c7 -3 16 -2 19 1 4 3 -2 6 -13 5 -11 0 -14 -3 -6 -6z"/>
<path d="M6838 4713 c7 -3 16 -2 19 1 4 3 -2 6 -13 5 -11 0 -14 -3 -6 -6z"/>
<path d="M6419 4443 c-13 -16 -12 -17 4 -4 9 7 17 15 17 17 0 8 -8 3 -21 -13z"/>
<path d="M6141 4134 c-16 -37 -9 -39 11 -3 9 16 14 29 9 29 -4 0 -13 -12 -20
-26z"/>
<path d="M8153 3635 c-6 -19 -8 -35 -3 -35 8 0 23 60 17 67 -2 1 -8 -13 -14
-32z"/>
<path d="M8140 3568 c0 -19 2 -20 10 -8 13 19 13 30 0 30 -5 0 -10 -10 -10
-22z"/>
<path d="M8121 3484 c0 -11 3 -14 6 -6 3 7 2 16 -1 19 -3 4 -6 -2 -5 -13z"/>
<path d="M5941 3460 c0 -8 4 -24 9 -35 5 -13 9 -14 9 -5 0 8 -4 24 -9 35 -5
13 -9 14 -9 5z"/>
<path d="M5661 3214 c0 -11 3 -14 6 -6 3 7 2 16 -1 19 -3 4 -6 -2 -5 -13z"/>
<path d="M5671 3170 c-1 -31 40 -173 52 -181 5 -4 10 -18 10 -33 0 -14 3 -24
7 -21 4 3 10 -5 13 -17 4 -12 9 -20 12 -16 3 3 -3 25 -13 49 -11 25 -32 85
-47 134 -14 50 -28 95 -30 100 -2 6 -4 -1 -4 -15z"/>
<path d="M6374 2615 c82 -66 263 -130 396 -139 71 -5 72 -5 20 4 -104 17 -165
32 -225 52 -56 19 -133 56 -145 69 -12 13 -55 39 -65 39 -5 -1 3 -12 19 -25z"/>
<path d="M7185 2540 c-16 -7 -17 -9 -3 -9 9 -1 20 4 23 9 7 11 7 11 -20 0z"/>
<path d="M7008 2493 c6 -2 18 -2 25 0 6 3 1 5 -13 5 -14 0 -19 -2 -12 -5z"/>
<path d="M7063 2493 c9 -2 23 -2 30 0 6 3 -1 5 -18 5 -16 0 -22 -2 -12 -5z"/>
<path d="M6887 2473 c18 -2 50 -2 70 0 21 2 7 4 -32 4 -38 0 -55 -2 -38 -4z"/>
<path d="M6400 2220 c20 -13 33 -13 25 0 -3 6 -14 10 -23 10 -15 0 -15 -2 -2
-10z"/>
<path d="M6465 2200 c3 -5 8 -10 11 -10 2 0 4 5 4 10 0 6 -5 10 -11 10 -5 0
-7 -4 -4 -10z"/>
<path d="M6575 2200 c11 -5 29 -9 40 -9 l20 0 -20 9 c-11 5 -29 9 -40 9 l-20
0 20 -9z"/>
<path d="M7957 4823 c-13 -13 -7 -56 11 -69 30 -23 42 -15 16 12 -17 16 -24
32 -21 45 5 20 4 23 -6 12z"/>
<path d="M7444 4442 c-102 -50 -435 -231 -541 -294 l-83 -49 -57 44 c-32 24
-67 47 -78 50 -13 4 -50 -10 -110 -42 -100 -55 -297 -189 -302 -208 -2 -6 23
-33 56 -60 33 -26 60 -50 60 -53 0 -3 -52 -43 -115 -90 -139 -102 -189 -153
-179 -184 3 -11 10 -55 15 -96 5 -41 12 -88 15 -105 10 -50 38 -170 41 -173 1
-2 30 15 63 37 33 23 135 86 227 142 163 98 167 99 187 82 12 -10 64 -59 117
-109 107 -103 154 -144 166 -144 15 0 383 245 383 255 1 6 -11 24 -27 40 -15
17 -69 76 -120 132 l-93 101 88 50 c49 28 133 73 188 102 55 28 103 54 107 58
10 10 65 256 88 396 17 104 15 156 -8 156 -4 0 -44 -17 -88 -38z m16 -32 c-8
-5 -19 -10 -25 -10 -5 0 -3 5 5 10 8 5 20 10 25 10 6 0 3 -5 -5 -10z m-228
-120 c-18 -11 -38 -20 -45 -20 -14 1 52 39 68 40 6 0 -5 -9 -23 -20z m142 -20
c17 -17 -6 -43 -67 -72 -32 -15 -57 -32 -57 -37 0 -12 25 -21 56 -21 38 0 91
-26 109 -54 15 -23 15 -27 0 -60 -16 -34 -69 -74 -139 -104 -24 -11 -31 -10
-47 4 -27 24 -23 50 9 63 15 6 40 22 56 35 l30 23 -53 7 c-68 9 -94 22 -115
56 -15 27 -15 32 -1 66 18 43 73 94 119 110 32 11 80 4 100 -16z m-211 -45
c-16 -22 -33 -32 -33 -20 0 8 34 43 43 44 4 1 0 -10 -10 -24z m-48 -25 c3 -6
-1 -7 -9 -4 -18 7 -21 14 -7 14 6 0 13 -4 16 -10z m-419 -35 c10 -8 14 -15 9
-15 -6 0 -16 5 -22 11 -8 8 -17 8 -32 0 -12 -7 -21 -8 -21 -2 0 8 12 14 41 20
3 0 14 -6 25 -14z m434 -15 c0 -5 -5 -10 -11 -10 -5 0 -7 5 -4 10 3 6 8 10 11
10 2 0 4 -4 4 -10z m-515 -9 c-3 -5 -21 -15 -40 -21 -19 -6 -35 -15 -35 -19 0
-7 -44 -31 -57 -31 -6 0 47 34 102 67 25 14 38 16 30 4z m325 -5 c0 -2 -7 -7
-16 -10 -8 -3 -12 -2 -9 4 6 10 25 14 25 6z m-165 -26 c3 -6 -1 -7 -9 -4 -18
7 -21 14 -7 14 6 0 13 -4 16 -10z m235 -12 c-14 -6 -38 -17 -54 -25 -37 -17
-41 -16 -22 2 8 8 21 15 30 15 8 0 18 5 21 10 3 6 16 10 28 9 21 0 21 -1 -3
-11z m93 5 c-7 -2 -19 -2 -25 0 -7 3 -2 5 12 5 14 0 19 -2 13 -5z m357 -66
c-6 -29 -13 -61 -15 -72 -5 -25 -67 -64 -73 -47 -2 7 -8 12 -14 12 -6 0 -8 -7
-5 -15 8 -19 -10 -30 -27 -16 -7 6 -22 9 -32 6 -11 -4 4 5 31 19 66 33 119 81
109 97 -4 7 -3 10 4 5 7 -4 13 11 18 41 4 27 9 42 12 35 2 -7 -1 -36 -8 -65z
m-320 55 c0 -13 -12 -22 -22 -16 -10 6 -1 24 13 24 5 0 9 -4 9 -8z m307 -14
c-3 -8 -6 -5 -6 6 -1 11 2 17 5 13 3 -3 4 -12 1 -19z m-867 -3 c0 -1 -6 -7
-13 -13 -10 -8 -13 -6 -13 7 0 11 6 17 13 14 7 -3 13 -6 13 -8z m529 -21 c26
-33 26 -50 1 -92 l-20 -32 30 -32 c17 -17 30 -35 30 -40 0 -4 -16 -16 -35 -25
-35 -16 -35 -16 -63 10 -15 15 -36 27 -46 27 -18 0 -18 -10 -1 -70 6 -19 -54
-56 -60 -37 -2 6 -20 63 -40 126 -20 62 -35 115 -33 117 2 2 35 19 72 39 85
44 135 47 165 9z m-649 -4 c-24 -15 -36 -11 -14 4 10 8 21 12 24 10 2 -3 -2
-9 -10 -14z m755 -10 c3 -6 -1 -7 -9 -4 -18 7 -21 14 -7 14 6 0 13 -4 16 -10z
m55 -10 c-8 -5 -22 -9 -30 -9 -10 0 -8 3 5 9 27 12 43 12 25 0z m-865 -20
c-16 -11 -34 -20 -40 -20 -16 1 38 40 55 40 8 0 2 -9 -15 -20z m218 -3 c4 3 7
4 7 0 0 -18 -21 -14 -30 5 -10 21 -10 21 3 6 8 -10 17 -15 20 -11z m542 13
c-4 -6 0 -22 9 -35 9 -13 16 -32 16 -42 0 -14 -2 -15 -9 -4 -10 16 -18 4 -15
-26 0 -13 -2 -23 -7 -23 -4 0 -6 15 -3 33 8 43 7 58 -1 85 -5 14 -3 22 4 22 7
0 9 -5 6 -10z m50 -24 c-11 -8 -24 -12 -28 -9 -11 7 12 23 32 23 11 0 9 -4 -4
-14z m-75 -46 c-6 -11 -8 -26 -4 -33 5 -8 4 -9 -4 -2 -9 8 -9 19 0 43 7 18 14
28 16 23 2 -5 -2 -19 -8 -31z m-798 18 c-9 -9 -9 -15 1 -27 10 -14 10 -14 -4
-3 -9 7 -25 10 -35 6 -11 -3 -5 3 11 15 33 23 45 27 27 9z m129 -34 c11 -14
10 -18 -6 -30 -26 -19 -38 -18 -52 6 -11 16 -10 21 5 29 24 15 38 13 53 -5z
m391 -89 l53 -105 -30 -25 c-16 -13 -24 -24 -17 -25 21 0 62 31 62 49 0 12 2
13 8 4 12 -19 92 14 92 38 0 22 18 29 47 18 15 -5 25 -3 33 7 16 18 34 18 27
0 -4 -11 -1 -11 18 -2 19 9 21 12 8 17 -12 4 -10 8 10 22 32 21 48 23 21 2
-10 -8 -14 -15 -7 -15 19 0 63 22 63 32 0 5 5 6 10 3 6 -3 10 -1 10 5 0 8 -9
10 -26 6 -17 -5 -23 -3 -19 4 8 14 38 13 53 -2 8 -8 12 -8 12 -1 0 6 7 13 15
17 8 3 15 1 15 -4 0 -14 -239 -142 -251 -134 -7 4 -9 3 -6 -3 4 -6 -26 -27
-66 -48 -39 -20 -79 -43 -87 -50 -20 -17 -64 -30 -56 -17 4 6 -2 15 -11 21
-17 9 -17 10 -1 16 15 6 15 8 0 36 -18 30 -32 38 -32 17 0 -6 -8 -20 -17 -31
-17 -19 -17 -20 5 -8 19 10 22 9 22 -5 0 -14 -7 -16 -41 -11 -38 5 -41 3 -51
-24 -6 -16 -24 -37 -41 -45 l-30 -16 7 75 c7 76 30 209 41 238 7 17 60 47 87
48 11 1 33 -32 70 -104z m13 55 c-4 -12 -9 -19 -12 -17 -3 3 -2 15 2 27 4 12
9 19 12 17 3 -3 2 -15 -2 -27z m-500 -16 c17 -14 21 -21 10 -16 -30 16 -61 41
-50 41 6 0 24 -11 40 -25z m840 16 c3 -5 2 -10 -4 -10 -5 0 -13 5 -16 10 -3 6
-2 10 4 10 5 0 13 -4 16 -10z m-538 -32 c-3 -7 -5 -2 -5 12 0 14 2 19 5 13 2
-7 2 -19 0 -25z m-186 13 c-10 -7 -11 -13 -2 -27 9 -17 10 -17 11 -1 0 10 8
17 20 17 11 0 20 -7 20 -15 0 -8 -4 -15 -9 -15 -5 0 -8 -23 -7 -50 l3 -50 -18
30 c-10 16 -16 38 -13 47 4 13 3 14 -3 5 -5 -7 -16 -10 -24 -7 -16 6 -85 -36
-82 -51 1 -5 -12 -9 -28 -10 -36 -1 -37 8 -1 27 15 8 32 20 37 27 6 7 27 14
48 15 30 2 37 6 37 22 0 16 -2 17 -10 5 -5 -8 -11 -12 -14 -9 -8 8 23 49 37
49 8 0 7 -3 -2 -9z m412 -37 c1 -11 6 -25 11 -32 4 -7 6 -16 3 -19 -9 -8 -45
71 -39 86 4 11 6 11 13 -2 5 -8 10 -23 12 -33z m278 23 c-10 -9 -11 -8 -5 6 3
10 9 15 12 12 3 -3 0 -11 -7 -18z m-739 -12 c-2 -14 -8 -22 -13 -19 -5 3 -5
14 1 25 14 26 18 24 12 -6z m138 21 c0 -2 -7 -7 -16 -10 -8 -3 -12 -2 -9 4 6
10 25 14 25 6z m31 -33 c1 -10 1 -79 0 -153 -1 -128 -2 -135 -23 -147 -13 -7
-26 -12 -30 -13 -4 0 -22 27 -40 60 -18 33 -35 60 -38 60 -3 0 -2 -35 1 -77 6
-62 4 -80 -7 -89 -14 -11 -50 -8 -58 5 -2 3 -6 67 -7 141 l-3 134 31 19 31 18
41 -68 41 -68 -5 82 c-5 82 -5 83 23 97 35 20 42 20 43 -1z m33 -55 c-4 -25
-3 -29 5 -18 8 12 11 7 11 -22 0 -21 -4 -38 -9 -38 -4 0 -6 -10 -4 -22 2 -13
0 -34 -6 -48 -7 -19 -9 0 -6 70 3 110 3 110 10 110 2 0 2 -15 -1 -32z m-336
-58 c-7 -11 -19 -20 -26 -20 -7 0 -11 -4 -8 -8 5 -9 -63 -46 -71 -38 -2 2 5 7
16 11 12 3 21 11 21 16 0 6 5 7 10 4 6 -3 10 0 10 7 0 10 36 40 58 47 1 1 -3
-8 -10 -19z m56 -17 c-4 -21 -17 -68 -30 -105 l-23 -68 37 -30 c20 -17 49 -36
64 -42 32 -14 29 -21 -23 -54 l-40 -25 -46 41 c-25 22 -47 39 -49 37 -2 -1 -7
-38 -13 -81 -10 -83 -30 -121 -53 -98 -6 6 -18 79 -27 162 l-15 150 22 16 c12
8 20 19 17 25 -4 5 3 5 16 1 13 -5 24 -19 26 -33 7 -46 19 -39 42 25 18 51 29
67 57 82 19 10 34 22 34 26 0 5 2 8 5 8 3 0 3 -17 -1 -37z m24 -50 c-1 -61 -1
-64 -8 -28 -7 34 -3 95 5 95 2 0 3 -30 3 -67z m642 21 c-47 -20 -60 -17 -20 5
19 10 39 16 44 13 5 -2 -6 -11 -24 -18z m60 -19 c7 -8 9 -15 6 -15 -4 0 -14 7
-22 15 -9 8 -11 15 -6 15 5 0 15 -7 22 -15z m-146 -30 c-27 -14 -51 -25 -54
-25 -12 1 76 50 89 50 8 0 -8 -11 -35 -25z m-697 -17 c-3 -8 -6 -5 -6 6 -1 11
2 17 5 13 3 -3 4 -12 1 -19z m523 18 c0 -2 -7 -7 -16 -10 -8 -3 -12 -2 -9 4 6
10 25 14 25 6z m360 -11 c7 -9 8 -15 2 -15 -5 0 -12 7 -16 15 -3 8 -4 15 -2
15 2 0 9 -7 16 -15z m-300 -10 c0 -2 -14 -12 -31 -21 -17 -8 -28 -11 -24 -4 4
6 17 15 29 20 27 11 26 11 26 5z m-475 -45 c-4 -17 -9 -29 -12 -26 -3 2 -2 19
2 36 4 17 9 29 12 26 3 -2 2 -19 -2 -36z m520 30 c-3 -5 -12 -10 -18 -10 -7 0
-6 4 3 10 19 12 23 12 15 0z m-745 -21 c-7 -11 -14 -19 -16 -16 -7 7 7 37 17
37 6 0 5 -9 -1 -21z m590 6 c-7 -9 -15 -13 -19 -10 -3 3 1 10 9 15 21 14 24
12 10 -5z m455 -15 c16 -17 16 -20 3 -15 -9 4 -19 13 -22 21 -7 19 -2 18 19
-6z m-415 5 c0 -2 -21 -16 -47 -31 -27 -15 -68 -41 -91 -57 -33 -22 -47 -26
-55 -18 -9 9 -7 11 8 6 19 -6 19 -6 3 8 -10 8 -18 18 -18 22 0 4 7 2 15 -5 12
-10 21 -10 45 0 17 7 27 17 23 24 -3 6 -3 8 1 4 4 -3 31 7 59 22 57 32 57 32
57 25z m375 -4 c3 -5 2 -12 -3 -15 -5 -3 -9 1 -9 9 0 17 3 19 12 6z m-738 -33
c-3 -8 -6 -5 -6 6 -1 11 2 17 5 13 3 -3 4 -12 1 -19z m225 -13 c-15 -13 -31
-21 -36 -18 -5 3 0 10 10 16 11 6 23 16 27 24 5 7 12 11 18 8 5 -3 -3 -17 -19
-30z m-491 -12 c-9 -16 -10 -14 -11 12 0 21 3 26 11 18 8 -8 8 -16 0 -30z
m645 28 c-4 -5 0 -11 6 -13 7 -3 -2 -5 -20 -5 -33 0 -33 1 -10 13 28 16 31 17
24 5z m404 -27 c0 -3 -7 -1 -15 6 -8 7 -15 17 -15 22 0 5 7 3 15 -6 8 -8 15
-18 15 -22z m69 -26 c34 -37 34 -38 15 -53 -38 -30 -54 -37 -48 -20 3 8 10 13
14 10 5 -3 11 -1 15 5 3 6 -1 13 -9 16 -9 3 -16 14 -16 23 1 14 2 14 11 -1 5
-10 16 -18 24 -18 9 0 5 9 -11 28 -14 15 -31 36 -36 47 -6 11 -7 16 -2 10 5
-5 25 -27 43 -47z m-94 13 c42 -24 44 -54 6 -81 l-31 -21 0 34 c0 23 -8 43
-25 61 -14 15 -25 29 -25 32 0 8 41 -6 75 -25z m-445 -1 c0 -5 -5 -10 -11 -10
-5 0 -7 5 -4 10 3 6 8 10 11 10 2 0 4 -4 4 -10z m495 0 c3 -5 1 -10 -4 -10 -6
0 -11 5 -11 10 0 6 2 10 4 10 3 0 8 -4 11 -10z m-525 -20 c0 -5 -8 -10 -17
-10 -15 0 -16 2 -3 10 19 12 20 12 20 0z m283 3 c-7 -2 -19 -2 -25 0 -7 3 -2
5 12 5 14 0 19 -2 13 -5z m132 -13 c10 -11 14 -20 9 -20 -5 0 -15 9 -22 20 -7
11 -11 20 -9 20 2 0 12 -9 22 -20z m-951 -15 c3 -8 1 -15 -4 -15 -6 0 -10 7
-10 15 0 8 2 15 4 15 2 0 6 -7 10 -15z m773 -5 c-47 -25 -56 -25 -26 0 13 10
33 19 44 20 14 0 8 -6 -18 -20z m-376 -11 c-23 -22 -101 -62 -108 -56 -2 3 4
8 15 11 10 4 24 16 30 29 6 12 11 16 11 10 1 -7 6 -13 12 -13 6 0 9 7 6 14 -4
11 -1 13 10 9 9 -4 14 -2 10 3 -3 5 3 10 13 10 19 0 19 -1 1 -17z m161 12
c-11 -6 -4 -19 30 -51 42 -41 20 -29 -35 19 -26 24 -23 41 8 41 6 0 4 -4 -3
-9z m278 -1 c0 -5 -4 -10 -10 -10 -5 0 -10 5 -10 10 0 6 5 10 10 10 6 0 10 -4
10 -10z m-510 -10 c0 -5 -5 -10 -11 -10 -5 0 -7 5 -4 10 3 6 8 10 11 10 2 0 4
-4 4 -10z m485 -26 c0 -28 25 -43 70 -44 l40 0 -50 -25 c-64 -31 -68 -31 -99
6 -32 38 -33 52 -3 72 27 20 42 16 42 -9z m-801 -49 c4 -40 3 -53 -3 -40 -9
19 -15 113 -7 104 2 -2 6 -31 10 -64z m833 43 c-3 -8 -6 -5 -6 6 -1 11 2 17 5
13 3 -3 4 -12 1 -19z m-547 2 c-8 -5 -19 -10 -25 -10 -5 0 -3 5 5 10 8 5 20
10 25 10 6 0 3 -5 -5 -10z m614 -6 c24 -9 10 -22 -19 -17 -13 3 -22 9 -19 14
6 11 16 11 38 3z m130 -20 c-10 -7 -23 -17 -29 -21 -34 -27 -185 -123 -194
-123 -6 0 -11 -4 -11 -10 0 -5 -10 -10 -22 -10 -17 0 -8 8 29 27 28 15 49 31
46 36 -3 6 -1 7 5 3 10 -6 40 12 127 79 10 8 23 15 28 15 4 0 6 4 3 9 -7 11
15 21 28 13 5 -3 0 -11 -10 -18z m-364 -24 c0 -5 -4 -10 -10 -10 -5 0 -10 5
-10 10 0 6 5 10 10 10 6 0 10 -4 10 -10z m53 -20 c-3 -11 -10 -23 -16 -27 -5
-3 -8 -2 -5 3 3 5 8 17 11 27 9 24 16 22 10 -3z m7 -82 c0 -5 -22 12 -50 38
-27 26 -50 49 -50 51 0 2 23 -15 50 -38 28 -23 50 -46 50 -51z m-515 72 c-3
-5 -14 -10 -23 -9 -14 0 -13 2 3 9 27 11 27 11 20 0z m584 -42 c2 -18 -19 -5
-41 25 l-23 32 32 -25 c18 -14 32 -28 32 -32z m101 42 c-8 -6 -24 -15 -35 -21
-16 -8 -15 -6 4 10 13 12 28 21 35 21 6 0 4 -5 -4 -10z m-750 -40 c-8 -5 -19
-10 -25 -10 -5 0 -3 5 5 10 8 5 20 10 25 10 6 0 3 -5 -5 -10z m685 0 c-3 -5
-12 -10 -18 -10 -7 0 -6 4 3 10 19 12 23 12 15 0z m-752 -38 c-10 -10 -26 -23
-35 -31 -15 -11 -16 -10 -5 13 8 16 14 21 19 13 5 -8 8 -6 8 6 0 9 7 17 15 17
13 0 13 -3 -2 -18z m701 3 c-4 -8 -8 -15 -10 -15 -2 0 -4 7 -4 15 0 8 4 15 10
15 5 0 7 -7 4 -15z m-749 -13 c-3 -3 -11 0 -18 7 -9 10 -8 11 6 5 10 -3 15 -9
12 -12z"/>
<path d="M7421 3967 c-13 -21 -12 -21 5 -5 10 10 16 20 13 22 -3 3 -11 -5 -18
-17z"/>
<path d="M7375 3940 c-3 -5 -2 -10 4 -10 5 0 13 5 16 10 3 6 2 10 -4 10 -5 0
-13 -4 -16 -10z"/>
<path d="M6976 3987 c-13 -10 -16 -20 -12 -35 9 -28 18 -28 52 1 42 36 5 67
-40 34z"/>
<path d="M6755 3823 c-4 -21 -9 -46 -12 -57 -4 -13 -1 -17 8 -12 8 3 22 9 32
12 9 4 17 12 17 19 0 13 -29 75 -35 75 -2 0 -7 -17 -10 -37z"/>
<path d="M7047 3788 c-3 -8 5 -14 20 -14 13 -1 23 -1 21 0 -2 1 -10 7 -19 14
-13 10 -18 10 -22 0z"/>
<path d="M7030 3749 c0 -5 -4 -8 -10 -4 -5 3 -18 -3 -30 -15 -11 -11 -23 -20
-27 -19 -4 0 -9 -5 -11 -11 -3 -9 1 -9 16 -1 11 6 22 16 24 21 3 10 21 16 51
19 11 1 8 21 -3 21 -5 0 -10 -5 -10 -11z"/>
<path d="M6910 3695 c-14 -7 -24 -16 -22 -19 6 -15 1 -19 -8 -6 -5 8 -12 11
-15 8 -8 -7 2 -28 13 -28 10 0 66 49 61 54 -2 3 -15 -2 -29 -9z"/>
<path d="M7990 4254 c0 -5 7 -18 15 -28 8 -11 15 -16 15 -10 0 5 -7 18 -15 28
-8 11 -15 16 -15 10z"/>
<path d="M8047 4105 c7 -49 13 -58 13 -19 0 16 -5 36 -10 44 -6 10 -7 2 -3
-25z"/>
<path d="M7810 4080 c0 -5 5 -10 11 -10 5 0 7 5 4 10 -3 6 -8 10 -11 10 -2 0
-4 -4 -4 -10z"/>
<path d="M8061 4043 c0 -4 4 -17 9 -28 8 -19 9 -19 9 2 1 12 -3 25 -9 28 -5 3
-10 3 -9 -2z"/>
<path d="M8090 3970 c0 -40 3 -70 7 -67 7 7 4 129 -3 136 -2 2 -4 -29 -4 -69z"/>
<path d="M8071 3974 c0 -11 3 -14 6 -6 3 7 2 16 -1 19 -3 4 -6 -2 -5 -13z"/>
<path d="M8082 3830 c0 -14 2 -19 5 -12 2 6 2 18 0 25 -3 6 -5 1 -5 -13z"/>
<path d="M8092 3780 c0 -14 2 -19 5 -12 2 6 2 18 0 25 -3 6 -5 1 -5 -13z"/>
<path d="M8051 4539 c-9 -15 -19 -19 -36 -15 -19 5 -23 3 -19 -9 4 -8 14 -15
24 -15 26 0 62 32 52 47 -5 9 -11 6 -21 -8z"/>
<path d="M8077 4383 c-4 -3 -7 -11 -7 -17 0 -6 5 -5 12 2 23 23 66 14 82 -15
9 -17 15 -22 16 -12 0 24 -33 49 -67 49 -16 0 -33 -3 -36 -7z"/>
<path d="M8673 4314 c0 -7 6 -10 14 -7 7 3 13 8 13 12 0 4 -6 8 -13 8 -8 0
-14 -6 -14 -13z"/>
<path d="M8050 4281 c0 -5 14 -20 32 -32 30 -22 40 -23 172 -21 77 2 142 5
145 7 2 3 -57 5 -132 5 -139 0 -171 6 -200 35 -10 9 -17 12 -17 6z"/>
<path d="M8671 4254 c0 -11 3 -14 6 -6 3 7 2 16 -1 19 -3 4 -6 -2 -5 -13z"/>
<path d="M8528 4223 c7 -3 16 -2 19 1 4 3 -2 6 -13 5 -11 0 -14 -3 -6 -6z"/>
<path d="M8580 4206 c0 -2 7 -6 15 -10 8 -3 15 -1 15 4 0 6 -7 10 -15 10 -8 0
-15 -2 -15 -4z"/>
<path d="M5571 3614 c0 -11 3 -14 6 -6 3 7 2 16 -1 19 -3 4 -6 -2 -5 -13z"/>
<path d="M6001 3714 c0 -11 3 -14 6 -6 3 7 2 16 -1 19 -3 4 -6 -2 -5 -13z"/>
<path d="M2523 2155 c-42 -30 -28 -40 55 -40 86 -1 148 -26 209 -84 40 -39 48
-39 29 -2 -49 95 -230 173 -293 126z"/>
<path d="M1833 2106 c-57 -19 -114 -62 -157 -120 -39 -53 -42 -72 -4 -36 35
34 176 98 243 111 70 14 85 23 57 38 -34 18 -95 21 -139 7z"/>
<path d="M2596 1963 c-15 -8 -25 -17 -22 -21 4 -3 12 0 18 6 16 16 101 15 116
0 9 -9 12 -9 12 -1 0 25 -87 36 -124 16z"/>
<path d="M2585 1921 c-36 -21 -59 -53 -69 -96 -9 -35 -1 -30 23 16 25 46 62
71 105 71 44 0 101 -36 119 -74 12 -29 34 -40 23 -12 -3 9 -6 19 -6 24 0 5
-18 27 -39 49 -34 36 -45 41 -83 41 -24 0 -56 -8 -73 -19z"/>
<path d="M1769 1860 c-47 -30 -82 -82 -94 -137 -10 -47 -1 -41 30 23 54 110
187 153 261 83 29 -28 32 -12 3 20 -48 51 -133 56 -200 11z"/>
<path d="M2618 1861 c-28 -25 -33 -36 -33 -76 0 -40 5 -51 33 -76 42 -38 73
-37 106 2 29 35 33 73 12 124 -26 60 -69 70 -118 26z m100 -38 c2 -7 -4 -16
-12 -19 -19 -7 -49 14 -40 28 8 13 46 6 52 -9z"/>
<path d="M1865 1806 c-50 -66 -42 -152 17 -182 80 -41 151 71 101 157 -14 24
-66 59 -87 59 -3 0 -17 -15 -31 -34z m39 -12 c21 -8 20 -24 -1 -40 -25 -17
-47 1 -32 27 11 21 11 21 33 13z"/>
<path d="M2440 1541 c0 -5 6 -11 14 -14 22 -9 24 -49 3 -79 -21 -32 -9 -38 18
-8 11 12 16 29 13 45 -4 21 -3 23 9 13 10 -8 13 -22 9 -41 -5 -25 -4 -28 9
-17 16 13 20 48 7 66 -20 30 -82 56 -82 35z"/>
<path d="M2270 1430 c-8 -5 -12 -11 -9 -14 2 -3 11 -1 19 4 8 5 12 11 9 14 -2
3 -11 1 -19 -4z"/>
<path d="M1080 1417 c-29 -22 -50 -61 -50 -91 0 -34 11 -27 26 17 6 17 22 39
36 50 23 17 27 17 59 3 59 -26 79 -50 79 -94 0 -22 3 -47 6 -56 12 -32 24 -15
24 34 0 41 -5 55 -31 85 -52 59 -113 81 -149 52z"/>
<path d="M1085 1370 c-3 -6 1 -7 9 -4 18 7 21 14 7 14 -6 0 -13 -4 -16 -10z"/>
<path d="M1160 1354 c0 -10 -6 -14 -14 -11 -9 4 -13 0 -10 -11 1 -9 6 -34 9
-55 12 -72 134 -172 168 -138 11 11 6 14 -45 25 -70 16 -122 102 -101 171 6
20 7 35 2 35 -5 0 -9 -7 -9 -16z"/>
<path d="M2435 1248 c-70 -11 -187 -20 -282 -21 -181 -3 -193 -7 -193 -66 0
-76 70 -165 165 -211 202 -97 420 -33 505 147 24 51 46 150 36 160 -13 13
-114 9 -231 -9z m136 -12 c-20 -24 -102 -54 -196 -71 -163 -31 -380 -16 -380
25 0 12 32 16 175 22 96 4 216 14 265 22 125 19 151 20 136 2z m-36 -180 c21
-28 3 -58 -53 -89 -91 -49 -252 -48 -358 4 -39 18 -82 55 -73 62 54 39 66 42
204 47 184 7 263 0 280 -24z"/>
<path d="M2133 1059 c-13 -5 -23 -13 -23 -19 0 -5 -3 -9 -7 -7 -5 1 -9 -1 -10
-5 -7 -19 -1 -20 18 -2 15 14 20 15 17 4 -2 -10 6 -16 25 -18 15 -2 27 -8 27
-13 0 -10 -28 -8 -48 5 -8 5 -19 3 -25 -4 -7 -6 -7 -10 -2 -9 6 1 19 -2 29 -6
12 -5 36 -3 65 8 25 9 84 19 131 23 l85 6 3 -28 c3 -38 7 -40 47 -18 20 10 31
20 25 22 -5 2 -10 10 -10 18 0 8 -11 14 -27 15 l-28 1 30 8 c30 7 30 7 5 13
-50 12 -172 19 -166 9 3 -5 -8 -12 -26 -14 -28 -5 -29 -4 -13 9 22 15 15 16
-40 3 -21 -5 -44 -5 -50 -1 -5 5 -20 5 -32 0z m337 -54 c0 -8 -7 -15 -15 -15
-16 0 -20 12 -8 23 11 12 23 8 23 -8z"/>
<path d="M2492 1038 c2 -12 10 -23 18 -26 12 -3 12 -2 3 8 -6 7 -9 19 -6 26 3
8 0 14 -7 14 -6 0 -10 -10 -8 -22z"/>
<path d="M2230 979 c0 -5 5 -7 10 -4 6 3 10 8 10 11 0 2 -4 4 -10 4 -5 0 -10
-5 -10 -11z"/>
<path d="M2288 983 c7 -3 16 -2 19 1 4 3 -2 6 -13 5 -11 0 -14 -3 -6 -6z"/>
<path d="M2188 963 c7 -3 16 -2 19 1 4 3 -2 6 -13 5 -11 0 -14 -3 -6 -6z"/>
<path d="M2228 953 c7 -3 16 -2 19 1 4 3 -2 6 -13 5 -11 0 -14 -3 -6 -6z"/>
<path d="M2320 949 c0 -5 9 -9 20 -9 11 0 20 2 20 4 0 2 -9 6 -20 9 -11 3 -20
1 -20 -4z"/>
<path d="M2278 943 c7 -3 16 -2 19 1 4 3 -2 6 -13 5 -11 0 -14 -3 -6 -6z"/>
<path d="M2881 1002 c-17 -31 -13 -40 5 -14 9 13 14 26 11 29 -3 2 -10 -4 -16
-15z"/>
<path d="M2839 948 c-13 -26 -102 -116 -164 -165 -22 -18 -37 -33 -33 -33 11
0 139 109 168 144 39 45 53 67 47 73 -3 2 -11 -6 -18 -19z"/>
<path d="M2415 850 c-3 -5 -2 -10 4 -10 5 0 13 5 16 10 3 6 2 10 -4 10 -5 0
-13 -4 -16 -10z"/>
<path d="M2345 840 c-28 -7 -27 -8 13 -9 23 0 42 4 42 9 0 11 -11 11 -55 0z"/>
<path d="M2590 729 l-25 -20 33 16 c17 8 32 18 32 20 0 10 -16 4 -40 -16z"/>
<path d="M811 1314 c0 -11 3 -14 6 -6 3 7 2 16 -1 19 -3 4 -6 -2 -5 -13z"/>
<path d="M3010 1573 c0 -12 5 -25 10 -28 13 -8 13 15 0 35 -8 12 -10 11 -10
-7z"/>
<path d="M3033 1385 c0 -22 2 -30 4 -17 2 12 2 30 0 40 -3 9 -5 -1 -4 -23z"/>
<path d="M2508 541 c-2 -38 0 -82 3 -97 6 -28 7 -28 8 -4 1 14 3 55 6 92 2 37
0 70 -5 73 -4 3 -10 -26 -12 -64z"/>
<path d="M1628 8723 c7 -3 16 -2 19 1 4 3 -2 6 -13 5 -11 0 -14 -3 -6 -6z"/>
<path d="M1868 8691 c-107 -7 -148 -23 -47 -19 l64 3 9 -68 c7 -59 6 -70 -9
-87 -15 -17 -16 -20 -3 -20 20 0 31 34 28 92 -3 68 12 88 63 89 33 0 38 2 22
9 -11 5 -22 8 -25 8 -3 -1 -49 -4 -102 -7z"/>
<path d="M1608 8673 c6 -2 18 -2 25 0 6 3 1 5 -13 5 -14 0 -19 -2 -12 -5z"/>
<path d="M1917 8506 c-4 -10 -5 -21 -2 -24 9 -9 17 6 13 25 -3 17 -4 17 -11
-1z"/>
<path d="M1846 8474 c-23 -23 -20 -30 4 -9 11 10 20 20 20 22 0 7 -9 2 -24
-13z"/>
<path d="M1921 8394 c0 -11 3 -14 6 -6 3 7 2 16 -1 19 -3 4 -6 -2 -5 -13z"/>
<path d="M1922 8290 c5 -15 8 -31 7 -36 -4 -26 2 -95 9 -90 4 2 9 -5 9 -17 2
-15 0 -18 -6 -8 -11 17 -23 -2 -15 -24 6 -14 8 -13 21 5 12 17 14 39 9 95 -7
85 -12 102 -30 102 -11 0 -12 -7 -4 -27z"/>
<path d="M420 8120 c0 -5 7 -10 16 -10 8 0 12 5 9 10 -3 6 -10 10 -16 10 -5 0
-9 -4 -9 -10z"/>
<path d="M1728 7813 c6 -2 18 -2 25 0 6 3 1 5 -13 5 -14 0 -19 -2 -12 -5z"/>
<path d="M1780 7800 c0 -8 25 -20 41 -20 20 0 7 18 -16 22 -14 3 -25 2 -25 -2z"/>
<path d="M1771 7775 c1 -19 18 -51 18 -35 0 8 -4 22 -9 30 -5 8 -9 11 -9 5z"/>
<path d="M1805 7750 c3 -5 8 -10 11 -10 2 0 4 5 4 10 0 6 -5 10 -11 10 -5 0
-7 -4 -4 -10z"/>
<path d="M4451 7734 c0 -11 3 -14 6 -6 3 7 2 16 -1 19 -3 4 -6 -2 -5 -13z"/>
<path d="M4977 7743 c-11 -10 3 -23 26 -23 12 0 30 -7 40 -15 18 -13 17 -14
-5 -18 -22 -4 -22 -4 3 -6 14 0 31 5 38 12 10 10 16 7 32 -12 15 -18 31 -24
72 -26 28 -2 67 -6 85 -9 17 -3 32 -2 32 2 0 7 -79 35 -105 37 -5 1 -17 4 -25
7 -8 4 -46 14 -85 24 -38 9 -77 21 -86 25 -9 5 -19 6 -22 2z"/>
<path d="M4526 7715 c-4 -10 1 -15 14 -15 11 0 20 7 20 15 0 8 -6 15 -14 15
-8 0 -16 -7 -20 -15z"/>
<path d="M4432 7670 c0 -19 2 -27 5 -17 2 9 2 25 0 35 -3 9 -5 1 -5 -18z"/>
<path d="M4450 7658 c0 -16 5 -28 10 -28 13 0 13 20 0 40 -8 12 -10 9 -10 -12z"/>
<path d="M4666 7658 c3 -4 9 -8 15 -8 5 0 9 4 9 8 0 5 -7 9 -15 9 -8 0 -12 -4
-9 -9z"/>
<path d="M4720 7632 c0 -14 9 -17 53 -18 28 0 64 -4 80 -8 24 -7 27 -6 27 18
0 21 -5 26 -26 26 -14 0 -23 -4 -19 -10 3 -5 -3 -10 -14 -10 -12 0 -21 5 -21
10 0 6 -18 10 -40 10 -32 0 -40 -4 -40 -18z"/>
<path d="M4683 7633 c4 -3 0 -15 -10 -25 -9 -10 -13 -21 -10 -25 8 -8 36 26
37 45 0 6 -5 12 -12 12 -6 0 -8 -3 -5 -7z"/>
<path d="M4430 7616 c0 -8 4 -17 9 -20 5 -4 7 3 4 14 -6 23 -13 26 -13 6z"/>
<path d="M5210 7620 c20 -13 63 -13 55 0 -3 6 -21 10 -38 10 -24 0 -28 -3 -17
-10z"/>
<path d="M4700 7581 c0 -30 17 -34 22 -6 4 17 1 25 -8 25 -8 0 -14 -9 -14 -19z"/>
<path d="M336 7352 c-6 -9 -32 -156 -42 -231 -5 -43 -3 -52 7 -49 8 3 14 14
14 26 1 24 14 43 16 21 6 -79 4 -88 -18 -83 -27 7 -80 -25 -61 -37 7 -5 21 -6
31 -3 10 3 24 0 32 -6 18 -15 85 -31 85 -20 0 5 15 4 33 0 17 -5 51 -13 73
-19 23 -6 60 -11 82 -11 l41 0 -19 33 c-10 17 -21 50 -25 72 -6 37 -27 113
-45 160 -4 11 -13 39 -19 63 -21 77 -46 47 -50 -60 -2 -48 -35 -151 -50 -156
-6 -2 -11 3 -11 12 0 9 -5 16 -11 16 -7 0 -9 11 -6 27 3 15 -2 59 -10 98 -8
38 -17 87 -20 108 -5 37 -17 55 -27 39z"/>
<path d="M1769 7305 c-4 -39 -5 -40 -49 -46 l-45 -6 43 -1 c23 -1 42 -7 42
-13 0 -6 7 -4 15 4 11 11 12 25 6 58 l-8 44 -4 -40z"/>
<path d="M1780 7217 c0 -14 5 -29 10 -32 7 -4 8 3 4 22 -9 38 -14 42 -14 10z"/>
<path d="M1772 7150 c0 -14 2 -19 5 -12 2 6 2 18 0 25 -3 6 -5 1 -5 -13z"/>
<path d="M1550 7151 c0 -11 38 -24 65 -22 39 3 65 11 65 22 0 6 -7 6 -20 -1
-14 -8 -31 -8 -58 0 -45 12 -52 12 -52 1z"/>
<path d="M1791 7134 c0 -11 3 -14 6 -6 3 7 2 16 -1 19 -3 4 -6 -2 -5 -13z"/>
<path d="M144 7019 c-7 -11 57 -19 74 -9 14 8 14 10 2 11 -8 0 -28 2 -43 3
-16 1 -30 -1 -33 -5z"/>
<path d="M5638 6983 c6 -2 18 -2 25 0 6 3 1 5 -13 5 -14 0 -19 -2 -12 -5z"/>
<path d="M5738 6983 c7 -3 16 -2 19 1 4 3 -2 6 -13 5 -11 0 -14 -3 -6 -6z"/>
<path d="M1068 6713 c7 -3 16 -2 19 1 4 3 -2 6 -13 5 -11 0 -14 -3 -6 -6z"/>
<path d="M1280 6500 c0 -5 18 -10 40 -10 22 0 40 5 40 10 0 6 -18 10 -40 10
-22 0 -40 -4 -40 -10z"/>
<path d="M670 6440 c0 -5 5 -10 11 -10 5 0 7 5 4 10 -3 6 -8 10 -11 10 -2 0
-4 -4 -4 -10z"/>
<path d="M757 6444 c-9 -10 2 -24 19 -24 8 0 14 7 14 15 0 15 -21 21 -33 9z"/>
<path d="M6951 6284 c0 -11 3 -14 6 -6 3 7 2 16 -1 19 -3 4 -6 -2 -5 -13z"/>
<path d="M6970 6255 c-10 -13 -9 -15 9 -15 11 0 21 4 21 9 0 18 -18 21 -30 6z"/>
<path d="M1314 6173 c-13 -4 -7 -43 7 -43 21 0 24 2 31 20 7 18 -14 31 -38 23z"/>
<path d="M1200 6150 c0 -5 6 -10 14 -10 8 0 18 5 21 10 3 6 -3 10 -14 10 -12
0 -21 -4 -21 -10z"/>
<path d="M1850 5619 c0 -5 5 -7 10 -4 6 3 10 8 10 11 0 2 -4 4 -10 4 -5 0 -10
-5 -10 -11z"/>
<path d="M9098 5543 c7 -3 16 -2 19 1 4 3 -2 6 -13 5 -11 0 -14 -3 -6 -6z"/>
<path d="M1320 5460 c0 -5 9 -10 21 -10 11 0 17 5 14 10 -3 6 -13 10 -21 10
-8 0 -14 -4 -14 -10z"/>
<path d="M1372 5447 c-10 -11 -7 -14 13 -13 14 1 25 6 26 11 0 16 -27 17 -39
2z"/>
<path d="M1469 5451 c-1 -3 -1 -10 0 -14 1 -5 -7 -6 -18 -2 -11 3 -22 1 -25
-4 -12 -18 12 -21 48 -6 20 9 42 13 48 9 6 -4 8 -3 5 3 -7 12 -56 24 -58 14z"/>
<path d="M739 5394 c-18 -5 -32 -41 -23 -56 4 -5 21 -8 39 -6 19 1 37 -1 41
-5 4 -4 18 -7 31 -7 26 0 31 25 11 52 -14 17 -71 30 -99 22z m98 -40 c-3 -3
-12 -4 -19 -1 -8 3 -5 6 6 6 11 1 17 -2 13 -5z"/>
<path d="M9590 5033 c0 -5 -18 -17 -41 -27 -76 -37 -71 -80 9 -64 42 9 42 9
42 54 0 24 -2 44 -5 44 -3 0 -5 -3 -5 -7z"/>
<path d="M9288 4889 c-7 -22 -14 -27 -21 -20 -19 19 -53 12 -65 -13 -8 -17
-22 -27 -47 -32 -19 -3 -35 -10 -35 -14 0 -10 -97 -40 -131 -40 -19 0 -29 -5
-29 -15 0 -11 12 -15 50 -15 28 0 50 -4 50 -10 0 -5 12 -10 28 -10 21 0 24 2
12 10 -11 7 -12 12 -4 20 15 15 104 2 104 -14 0 -6 -26 -17 -57 -24 -32 -7
-76 -17 -98 -22 -22 -5 -91 -12 -154 -15 -63 -3 -117 -8 -119 -10 -3 -3 -11 0
-19 6 -7 6 -13 8 -13 4 0 -16 33 -75 42 -75 5 0 7 -4 3 -9 -3 -6 1 -13 9 -18
8 -4 14 -10 14 -13 -1 -3 7 -18 16 -35 15 -27 15 -16 -1 23 -5 12 -2 12 15 1
19 -12 27 -11 54 3 48 24 80 29 97 15 12 -10 14 -9 8 6 -6 15 0 17 44 17 28 0
65 7 82 16 61 32 67 34 95 34 16 0 38 9 49 20 12 10 33 22 47 26 28 7 57 34
37 34 -7 0 -9 4 -6 10 3 5 26 7 50 4 43 -5 45 -4 45 21 0 14 -4 25 -9 25 -11
0 -11 52 0 66 13 15 -14 36 -43 34 -44 -4 -56 0 -61 20 -8 30 -27 24 -39 -11z
m-40 -83 c-2 -1 -13 -9 -24 -19 -21 -17 -22 -17 -26 0 -4 14 2 18 24 19 16 1
27 1 26 0z m-451 -165 c0 -11 -5 -18 -9 -15 -4 3 -5 11 -1 19 7 21 12 19 10
-4z m83 -79 c0 -4 -9 -8 -20 -9 -11 -1 -20 2 -20 8 0 5 9 9 20 9 11 0 20 -4
20 -8z"/>
<path d="M8560 4856 c0 -2 7 -9 15 -16 9 -7 15 -8 15 -2 0 5 -7 12 -15 16 -8
3 -15 4 -15 2z"/>
<path d="M9520 4750 c0 -28 -2 -30 -40 -30 -29 0 -40 -4 -40 -15 0 -20 105
-20 140 0 l25 14 -35 1 -35 1 27 23 c27 24 27 24 5 30 -40 10 -47 7 -47 -24z"/>
<path d="M8840 4483 c0 -5 4 -14 9 -22 8 -12 12 -12 25 2 9 8 16 19 16 23 0 5
-5 3 -12 -4 -15 -15 -32 -16 -23 -2 3 6 1 10 -4 10 -6 0 -11 -3 -11 -7z"/>
<path d="M9520 3293 l0 -38 20 30 c14 22 16 31 7 37 -22 14 -27 8 -27 -29z"/>
<path d="M9430 3280 c-8 -5 -10 -10 -5 -10 6 0 17 5 25 10 8 5 11 10 5 10 -5
0 -17 -5 -25 -10z"/>
<path d="M9520 3070 c0 -5 11 -10 25 -10 14 0 25 5 25 10 0 6 -11 10 -25 10
-14 0 -25 -4 -25 -10z"/>
<path d="M9250 2995 l-12 -44 -62 6 c-60 5 -61 5 -62 -21 -1 -14 -5 -33 -8
-42 -6 -15 -8 -15 -32 1 -14 9 -51 20 -82 26 -48 7 -59 6 -69 -7 -6 -8 -21
-14 -34 -12 -12 2 -24 -3 -26 -9 -3 -8 4 -13 15 -13 15 0 21 -8 24 -37 3 -21
1 -48 -5 -59 -6 -14 -5 -28 2 -42 9 -17 8 -21 -7 -25 -13 -4 -12 -5 4 -6 12 0
24 6 28 14 4 12 11 13 32 4 32 -12 118 6 147 30 16 13 21 13 48 -3 35 -21 63
-14 85 20 18 27 44 32 44 9 0 -9 10 -15 26 -15 14 0 34 -4 44 -10 13 -7 24 -5
41 9 59 46 136 61 192 37 15 -7 17 0 17 83 0 50 -4 91 -9 91 -5 0 -11 9 -14
20 -3 13 0 20 9 20 8 0 14 5 14 10 0 15 -18 12 -39 -7 -72 -67 -97 -75 -88
-27 2 14 0 27 -4 30 -17 10 -48 -7 -55 -29 -7 -25 -33 -57 -46 -57 -4 0 -8 9
-8 20 0 11 -6 20 -14 20 -8 0 -23 14 -33 30 -25 44 -48 39 -63 -15z"/>
<path d="M9511 3024 c0 -11 3 -14 6 -6 3 7 2 16 -1 19 -3 4 -6 -2 -5 -13z"/>
<path d="M8562 2760 c0 -14 2 -19 5 -12 2 6 2 18 0 25 -3 6 -5 1 -5 -13z"/>
<path d="M8576 2711 c-4 -6 -5 -20 -1 -30 3 -11 1 -23 -6 -26 -8 -6 -7 -10 2
-16 20 -14 -19 -42 -48 -34 -16 4 -29 -3 -47 -22 l-25 -27 -12 27 c-9 20 -20
27 -40 27 -19 0 -34 8 -45 25 -9 13 -25 27 -37 31 -20 6 -20 7 4 21 l24 14
-25 -5 c-14 -3 -29 -6 -33 -6 -5 0 -5 -10 -2 -22 4 -16 3 -19 -3 -10 -7 11
-16 10 -45 -4 -21 -10 -37 -21 -37 -26 0 -4 -9 -8 -21 -8 -18 0 -20 -4 -15
-26 4 -15 3 -23 -3 -20 -5 3 -11 -1 -15 -9 -3 -8 -1 -15 4 -15 6 0 10 -8 9
-17 0 -11 -3 -13 -6 -5 -7 17 -23 15 -23 -3 0 -21 22 -19 47 4 21 20 53 19 83
-3 38 -28 60 -37 60 -24 1 7 14 -2 29 -20 16 -18 39 -34 52 -36 13 -1 32 -6
41 -10 11 -5 28 0 50 17 37 27 121 67 140 67 7 0 22 -7 32 -15 11 -8 28 -15
38 -15 10 0 18 -6 18 -12 0 -8 3 -9 8 -3 4 6 16 15 26 21 17 9 40 47 78 127
18 37 -15 43 -54 10 -32 -28 -57 -7 -82 70 -3 10 -15 17 -31 17 -20 0 -25 -5
-25 -25 0 -16 -6 -25 -15 -25 -8 0 -15 4 -15 8 0 5 -6 16 -13 27 -10 12 -16
15 -21 6z"/>
<path d="M9296 2635 c-15 -8 -32 -12 -37 -10 -4 3 -19 -10 -31 -29 -13 -20
-29 -36 -37 -36 -8 0 -31 -18 -53 -39 -33 -35 -44 -56 -39 -84 1 -4 -3 -16 -9
-27 -15 -28 -39 -14 -45 28 -3 21 -10 45 -16 54 -5 10 -9 25 -9 33 0 8 -6 15
-13 15 -9 0 -14 -17 -15 -56 -1 -52 -14 -84 -32 -84 -5 0 -6 10 -2 23 5 19 4
20 -11 9 -9 -8 -32 -14 -52 -14 -22 0 -35 -5 -35 -13 0 -7 -7 -15 -15 -19 -8
-3 -15 -12 -15 -21 0 -9 -10 -16 -27 -17 -16 0 -35 -2 -43 -3 -8 -1 -20 2 -26
7 -15 11 -34 -12 -35 -43 0 -13 4 -49 10 -79 15 -75 16 -78 24 -86 11 -11 8
-44 -3 -44 -5 0 -10 11 -10 25 0 14 -7 28 -15 31 -9 4 -15 19 -15 41 0 37 -24
93 -40 93 -6 0 -10 5 -10 11 0 6 -11 20 -25 31 -14 11 -25 26 -25 35 0 8 -6
13 -12 10 -9 -3 -12 -25 -11 -73 1 -38 -1 -59 -3 -48 -5 20 -8 21 -44 12 -22
-6 -52 -22 -67 -37 l-28 -26 32 -3 c50 -5 59 -33 23 -66 -17 -14 -30 -33 -30
-41 0 -8 -9 -15 -19 -15 -12 0 -21 -9 -25 -25 -4 -14 -13 -25 -21 -25 -18 0
-18 5 -5 31 8 13 7 19 0 19 -13 0 -1 52 14 62 7 4 4 13 -7 26 -9 10 -17 26
-17 34 0 9 -9 18 -20 21 -11 3 -23 13 -27 24 -4 10 -15 24 -25 31 -10 7 -18
20 -18 28 0 8 -7 14 -16 14 -8 0 -12 5 -8 11 4 7 -1 10 -11 7 -25 -4 -29 -23
-9 -43 28 -27 48 -185 24 -185 -5 0 -9 -5 -7 -11 1 -6 -3 -13 -9 -16 -8 -2
-14 18 -19 59 -9 72 -20 108 -35 108 -5 0 -10 -20 -10 -45 0 -25 -4 -45 -10
-45 -5 0 -10 -8 -10 -17 -1 -19 -22 -53 -34 -53 -3 0 -6 12 -6 28 0 54 -31
119 -66 135 -18 9 -35 25 -39 37 -11 35 -25 12 -21 -36 2 -25 6 -47 9 -50 7
-8 -4 -44 -14 -44 -5 0 -9 7 -9 16 0 8 -4 12 -10 9 -5 -3 -10 -14 -10 -24 0
-10 -9 -30 -20 -44 -11 -14 -20 -32 -20 -41 0 -18 -35 -22 -45 -6 -3 6 -1 10
4 10 6 0 9 10 7 23 -3 12 -5 30 -5 40 -1 9 -10 26 -20 36 -11 11 -22 34 -25
51 -2 18 -8 35 -12 38 -4 4 -4 -1 -1 -10 5 -14 1 -17 -23 -14 -16 2 -39 -3
-50 -11 -27 -19 -26 -9 2 17 23 21 44 27 33 10 -3 -5 -2 -10 3 -10 6 0 13 7
16 16 3 8 2 12 -4 9 -6 -3 -10 -2 -10 3 0 14 26 22 36 12 5 -5 10 4 11 20 l2
29 -42 -39 c-23 -22 -45 -40 -49 -40 -3 0 -17 -9 -30 -20 -12 -11 -34 -29 -48
-41 -18 -14 -20 -19 -7 -15 11 3 16 2 12 -4 -3 -6 -2 -10 4 -10 5 0 11 4 13 8
2 4 14 2 28 -6 l25 -14 -27 6 c-15 4 -30 1 -34 -5 -4 -8 -9 -7 -15 2 -10 16
-12 -1 -3 -25 4 -11 14 -14 29 -10 18 4 23 1 27 -20 4 -17 1 -26 -8 -26 -7 0
-17 -7 -21 -15 -7 -12 -12 -6 -22 22 -7 21 -17 48 -24 61 l-11 23 -30 -34
c-17 -18 -66 -65 -108 -105 -70 -65 -79 -77 -55 -73 10 1 9 -23 -3 -53 -5 -14
-6 -26 -1 -26 5 0 11 -17 14 -37 3 -21 8 -48 12 -60 9 -27 -9 -32 -19 -5 -3 9
-13 28 -21 42 l-15 25 -2 -30 c-1 -16 -2 -37 -2 -46 0 -11 -5 -15 -15 -11 -24
9 -96 59 -111 77 -10 13 -9 15 9 15 11 0 21 4 21 9 0 5 9 11 19 14 14 3 18 1
14 -9 -3 -8 0 -14 6 -14 6 0 12 10 12 23 1 16 2 18 6 5 2 -10 10 -18 18 -18
15 0 28 53 14 58 -5 2 -6 9 -3 14 10 15 -12 2 -62 -39 -23 -18 -44 -33 -48
-33 -7 0 -71 -44 -91 -63 -6 -6 1 -7 19 -3 26 6 28 5 17 -8 -9 -11 -10 -16 -2
-16 6 0 11 -7 11 -15 0 -8 7 -15 15 -15 8 0 26 -20 40 -44 14 -24 33 -47 41
-50 8 -3 13 -10 9 -16 -7 -11 -33 2 -82 40 -78 61 -92 70 -103 70 -7 0 -10 7
-6 15 9 23 -30 19 -56 -7 -16 -16 -17 -20 -5 -15 17 6 26 0 69 -49 9 -10 30
-32 47 -48 17 -16 31 -33 31 -38 0 -15 -32 -21 -51 -10 -25 16 -39 15 -39 -3
0 -20 -44 -20 -64 0 -8 8 -19 15 -25 15 -6 0 -11 9 -11 21 0 11 -4 18 -9 14
-5 -3 -12 -1 -16 5 -3 5 -2 10 4 10 5 0 9 8 8 18 -1 13 -11 18 -44 19 -24 1
-43 -3 -43 -8 0 -5 11 -9 25 -9 16 0 25 -6 25 -16 0 -12 -7 -15 -25 -12 -14 3
-25 2 -25 -3 0 -4 -10 -10 -22 -12 -13 -3 -3 -3 20 -1 37 3 45 1 49 -16 3 -11
12 -20 20 -20 8 0 11 5 8 10 -9 14 8 13 23 -2 20 -20 14 -47 -15 -65 -16 -9
-34 -23 -40 -31 -8 -10 -34 -16 -70 -17 -48 -2 -59 -6 -67 -24 -8 -18 -15 -21
-35 -16 -14 4 -26 7 -26 8 0 1 -10 16 -23 34 -12 18 -22 41 -22 51 0 11 -8 22
-18 24 -23 6 -27 -28 -6 -49 19 -20 15 -78 -6 -79 -8 -1 -30 -2 -47 -2 -21 -1
-33 -7 -33 -16 0 -7 -7 -19 -15 -26 -12 -10 -21 -8 -50 10 -31 19 -39 21 -65
10 -17 -7 -30 -16 -30 -21 0 -5 -7 -9 -15 -9 -9 0 -18 -6 -21 -14 -6 -15 -11
-15 -90 0 -21 4 -36 1 -47 -11 -10 -9 -17 -12 -17 -6 0 6 -10 11 -22 11 -13 0
-32 7 -42 15 -21 16 -61 21 -52 6 8 -12 -19 -21 -65 -21 -22 0 -38 -4 -34 -9
11 -19 -18 -61 -42 -61 -12 0 -26 0 -30 0 -5 -1 -9 8 -11 19 -2 10 -12 21 -23
24 -22 6 -26 27 -4 27 8 0 15 7 15 15 0 9 -9 15 -22 14 -13 0 -17 -3 -10 -6
23 -9 -40 -35 -73 -30 -16 2 -40 0 -53 -6 -15 -7 -26 -7 -33 0 -6 6 4 14 32
22 29 9 38 15 29 21 -10 6 -8 9 6 13 10 3 -24 5 -76 4 -102 0 -156 6 -234 29
-54 15 -113 19 -66 4 24 -8 23 -8 -8 -9 -20 -1 -35 5 -38 14 -4 8 -14 15 -23
15 -14 -1 -14 -2 2 -14 14 -11 16 -18 7 -41 -6 -15 -8 -36 -5 -46 5 -16 2 -16
-30 -7 -27 9 -41 8 -60 -2 -34 -18 -31 -32 12 -61 48 -31 51 -45 13 -53 -17
-3 -29 -10 -25 -15 3 -6 12 -8 20 -4 8 3 15 0 15 -6 0 -8 8 -7 22 3 28 20 67
21 74 1 4 -8 10 -12 15 -9 5 3 9 1 9 -5 0 -5 10 -12 23 -16 12 -3 31 -10 42
-14 61 -25 99 -32 138 -26 40 6 159 -9 182 -23 16 -10 35 -11 35 -1 0 5 5 9
11 9 5 0 8 -4 5 -9 -9 -14 22 -21 49 -11 14 5 31 7 39 4 16 -6 76 25 76 38 0
21 165 -3 182 -26 12 -18 -4 -36 -43 -46 -21 -6 -40 -14 -43 -18 -7 -12 -146
2 -155 16 -6 10 -15 10 -34 3 -15 -6 -27 -13 -27 -16 0 -9 72 -35 99 -35 15 0
32 -5 39 -12 7 -7 12 -8 12 -4 0 5 7 2 16 -5 9 -7 28 -15 43 -17 14 -2 34 -10
43 -19 9 -8 21 -12 27 -9 15 10 23 -10 8 -22 -6 -6 -34 -13 -62 -17 -27 -4
-65 -16 -83 -26 -18 -10 -42 -19 -53 -19 -20 0 -28 -3 -89 -36 -19 -10 -63
-23 -98 -29 -103 -17 -78 -30 70 -35 75 -3 142 -11 150 -17 7 -5 35 -13 62
-17 27 -3 57 -12 65 -20 9 -7 24 -16 34 -19 10 -4 17 -17 17 -32 0 -29 6 -28
-170 -29 -122 -1 -125 -2 -128 -23 -4 -27 14 -29 68 -10 20 6 61 10 92 9 49
-3 57 -7 60 -25 2 -17 11 -23 38 -25 48 -3 119 -8 157 -10 27 -2 30 -5 26 -24
-5 -19 -3 -21 8 -10 7 6 24 12 38 12 l26 0 -33 -31 c-30 -28 -37 -30 -100 -29
-96 1 -103 1 -144 -6 -51 -8 -49 -24 2 -17 33 5 40 3 40 -11 0 -9 -6 -16 -12
-16 -9 0 -8 -4 2 -11 11 -8 1 -9 -37 -6 -29 2 -53 1 -53 -2 0 -4 -10 -7 -22
-8 -11 -1 -24 -6 -27 -11 -9 -12 -71 -36 -77 -29 -9 9 -65 -14 -59 -24 3 -5
24 -13 45 -19 44 -12 80 0 80 25 0 8 6 15 14 15 8 0 16 5 18 12 5 14 118 12
132 -3 17 -16 119 -10 161 10 22 11 34 20 26 20 -11 1 -10 5 5 16 18 14 18 16
2 29 -24 18 -23 36 2 36 11 0 20 3 20 8 0 4 24 18 53 31 28 12 60 27 69 32 23
12 65 12 73 0 3 -5 -6 -18 -20 -29 -14 -11 -25 -24 -25 -30 0 -5 -9 -12 -21
-15 -27 -7 -20 -30 12 -37 29 -7 39 -40 12 -40 -17 -1 -17 -1 1 -15 10 -8 22
-12 26 -10 4 3 45 7 91 9 46 2 126 7 177 11 89 8 92 7 92 -13 0 -28 15 -36 72
-34 40 1 52 -4 78 -29 22 -23 36 -29 52 -24 18 5 20 4 8 -4 -13 -10 -13 -12 0
-21 8 -5 31 -13 50 -16 33 -7 43 -12 79 -45 9 -8 23 -13 29 -11 8 2 10 -3 5
-14 -6 -15 -2 -16 28 -9 37 8 99 8 108 -1 15 -15 -39 -28 -162 -38 -27 -3 -54
-9 -60 -14 -7 -5 -62 -15 -123 -20 -61 -6 -121 -15 -135 -20 -13 -5 -50 -8
-81 -7 -32 1 -55 -2 -52 -7 8 -13 -16 -38 -37 -38 -11 0 -19 -7 -19 -15 0 -13
60 -15 470 -15 458 0 470 1 480 20 9 17 8 20 -9 20 -31 0 -35 19 -9 44 39 39
111 34 157 -10 13 -13 27 -22 31 -19 4 2 15 -2 25 -9 18 -13 18 -14 -3 -20
-67 -22 10 -26 443 -26 429 0 466 1 484 17 43 39 53 45 60 37 3 -5 17 -15 31
-21 14 -6 19 -12 13 -12 -7 -1 -13 -5 -13 -11 0 -6 107 -10 300 -10 l300 0 0
1120 0 1120 -25 0 c-22 0 -25 4 -25 40 0 36 -3 40 -24 40 -17 0 -26 -7 -30
-24 -7 -27 -32 -38 -86 -40 -28 -1 -35 -5 -35 -21 0 -17 -6 -20 -47 -19 -33 0
-48 -4 -48 -13 0 -7 9 -13 21 -13 31 0 17 -23 -22 -36 -64 -21 -89 -25 -89
-13 0 6 -7 17 -15 25 -29 29 -14 101 18 88 9 -3 15 -10 12 -14 -3 -5 2 -13 12
-18 14 -8 21 -4 37 21 19 30 21 31 24 10 3 -17 10 -23 30 -23 21 0 23 3 12 10
-11 7 -9 11 13 19 15 6 27 14 27 19 0 5 11 7 24 5 19 -4 25 0 28 18 2 17 10
23 38 25 19 1 60 12 90 23 l55 20 3 105 c2 92 1 105 -13 100 -19 -8 -20 10 0
26 21 18 19 29 -5 23 -11 -3 -20 0 -20 6 0 6 -8 11 -17 11 -17 -1 -17 -1 0
-14 19 -15 23 -40 5 -34 -10 4 -19 16 -35 46 -1 2 -14 -3 -30 -12 -15 -9 -40
-20 -55 -26 -16 -5 -28 -16 -28 -25 0 -17 -9 -19 -30 -5 -12 8 -13 13 -3 29
10 16 9 22 -12 35 -29 19 -24 19 -59 1z m-156 -240 c0 -44 -11 -57 -27 -32
-11 18 -12 37 -2 37 5 0 9 9 9 20 0 11 5 20 10 20 6 0 10 -20 10 -45z m384
-170 c-6 -16 -24 -21 -24 -7 0 11 11 22 21 22 5 0 6 -7 3 -15z m-1799 -25 c3
-5 1 -10 -4 -10 -6 0 -11 5 -11 10 0 6 2 10 4 10 3 0 8 -4 11 -10z m348 -7
c-7 -2 -13 -11 -13 -19 0 -8 -4 -14 -10 -14 -5 0 -10 4 -10 8 0 12 22 32 35
31 5 0 4 -3 -2 -6z m850 -31 c-13 -2 -23 -8 -23 -13 0 -5 10 -8 23 -6 27 3 29
-20 4 -54 -9 -13 -27 -44 -40 -69 -27 -53 -52 -68 -36 -21 6 17 15 29 19 26
13 -8 -2 79 -16 96 -8 8 -14 20 -14 26 0 13 28 25 41 17 5 -3 17 -1 26 5 10 5
22 6 28 3 5 -4 0 -8 -12 -10z m95 -13 c4 -11 2 -12 -9 -1 -7 6 -21 12 -31 12
-10 0 -18 4 -18 9 0 15 53 -3 58 -20z m72 -26 c8 -7 -23 -21 -37 -16 -7 3 -13
12 -13 20 0 10 6 12 23 7 12 -3 24 -8 27 -11z m-974 -135 c-3 -51 -6 -95 -6
-98 -3 -13 -49 118 -49 141 -1 29 15 49 41 49 17 0 18 -8 14 -92z m534 58 c0
-8 -19 -34 -43 -59 -24 -26 -49 -59 -56 -74 -7 -15 -17 -36 -22 -45 -5 -10 -9
-25 -9 -33 0 -8 -5 -15 -11 -15 -7 0 -8 7 -4 18 4 9 13 40 21 69 18 68 62 132
92 133 12 0 22 5 22 10 0 6 2 10 5 10 3 0 5 -6 5 -14z m-947 -64 c-3 -7 -12
-11 -20 -8 -8 3 -19 6 -24 6 -5 0 -9 5 -9 10 0 6 7 10 15 10 8 0 15 8 15 17 0
15 2 15 14 -2 8 -11 11 -25 9 -33z m637 39 c0 -12 -20 -25 -27 -18 -7 7 6 27
18 27 5 0 9 -4 9 -9z m-765 -141 c0 -7 -6 -15 -12 -17 -8 -3 -13 4 -13 17 0
13 5 20 13 18 6 -3 12 -11 12 -18z m205 -60 c0 -13 -1 -13 -10 0 -5 8 -10 22
-10 30 0 13 1 13 10 0 5 -8 10 -22 10 -30z m-200 10 c0 -5 -2 -10 -4 -10 -3 0
-8 5 -11 10 -3 6 -1 10 4 10 6 0 11 -4 11 -10z m330 -39 c0 -12 -20 -25 -27
-18 -7 7 6 27 18 27 5 0 9 -4 9 -9z m551 -23 c5 -47 7 -56 13 -66 3 -6 2 -13
-3 -16 -13 -8 -17 1 -26 52 -4 28 -3 42 4 42 6 0 12 -6 12 -12z m-809 -55 c37
-40 57 -84 59 -131 4 -60 -5 -59 -25 3 -10 33 -32 70 -56 97 -22 23 -40 46
-40 50 0 18 38 6 62 -19z m578 11 c0 -4 -14 -29 -31 -57 -17 -27 -31 -65 -32
-83 -1 -19 -6 -33 -11 -31 -17 6 -25 58 -14 85 19 45 88 112 88 86z m-204 -74
c2 -22 5 -46 6 -52 2 -7 -4 -13 -12 -13 -17 0 -25 52 -15 93 8 33 17 22 21
-28z m584 -139 c-28 -26 -50 -53 -50 -60 0 -6 -4 -11 -10 -11 -5 0 -10 -7 -10
-15 0 -8 -4 -15 -10 -15 -33 0 14 82 74 130 58 46 62 25 6 -29z m-548 22 c2
-10 1 -29 -3 -43 -6 -20 -7 -21 -8 -5 -1 11 -4 30 -7 43 -4 12 -2 22 4 22 5 0
12 -8 14 -17z m59 -71 c7 -19 5 -22 -16 -22 -18 0 -25 6 -25 18 0 38 28 41 41
4z m-106 -41 c-3 -10 -21 -23 -40 -28 -31 -10 -35 -9 -35 7 0 22 18 36 43 32
9 -2 17 0 16 5 -1 4 -1 15 0 23 1 12 4 11 12 -3 6 -9 8 -26 4 -36z m-389 14
c9 -8 24 -15 35 -15 14 0 19 -7 19 -25 0 -30 -9 -31 -41 -7 -13 10 -32 21 -41
25 -22 8 -24 37 -2 37 8 0 22 -7 30 -15z m184 -15 c4 -28 0 -41 -10 -35 -5 3
-10 20 -10 38 0 31 16 28 20 -3z m393 15 c-4 -14 -45 -13 -50 1 -2 6 8 11 24
10 15 -1 27 -5 26 -11z m-649 -1 c23 -9 20 -34 -3 -34 -22 0 -35 15 -26 30 7
12 8 12 29 4z m-383 -84 c-28 -28 -51 -55 -51 -60 0 -5 -10 -12 -22 -16 -13
-3 -31 -13 -40 -21 -10 -9 -26 -13 -37 -10 -11 3 -25 -1 -32 -9 -18 -22 -33
-17 -52 19 -14 25 -17 44 -12 70 8 39 19 47 29 22 3 -8 12 -15 20 -15 8 0 16
-6 19 -12 2 -7 8 4 12 25 4 20 12 40 17 43 16 10 29 -18 24 -52 -7 -48 8 -62
30 -28 23 37 44 58 90 89 61 42 64 14 5 -45z m350 31 c27 -28 25 -55 -3 -31
-7 6 -22 17 -32 24 -11 7 -16 18 -12 24 10 17 14 15 47 -17z m719 10 c0 -4 -3
-11 -7 -14 -8 -9 -34 13 -28 24 6 9 35 1 35 -10z m-370 -7 c0 -24 -24 -93 -31
-88 -10 6 -12 55 -3 78 6 15 34 23 34 10z m-1010 -107 c0 -8 6 -17 14 -20 7
-3 16 -20 19 -39 3 -18 9 -43 13 -55 5 -17 2 -23 -9 -23 -21 0 -79 49 -71 61
11 19 -14 8 -27 -12 -12 -17 -26 -21 -72 -22 -31 -1 -57 1 -57 5 0 12 54 58
67 58 7 0 24 5 38 12 26 12 34 49 16 77 -5 8 -7 19 -5 26 6 15 74 -48 74 -68z
m565 51 c14 -6 25 -15 25 -19 0 -4 16 -13 35 -20 58 -21 49 -34 -22 -31 -58 3
-65 2 -70 -16 -6 -25 -21 -32 -48 -22 -18 7 -19 8 -2 15 9 4 17 13 17 21 0 8
7 14 15 14 8 0 15 3 15 8 0 4 -25 7 -55 7 -30 0 -55 3 -55 8 0 4 -7 7 -15 7
-31 0 -14 19 23 25 20 4 44 8 52 10 33 6 60 4 85 -7z m365 -13 c0 -15 -18 -30
-27 -22 -2 3 -2 15 2 26 7 23 25 19 25 -4z m-194 -27 c41 -62 54 -87 45 -92
-15 -9 -71 70 -71 100 0 8 -4 14 -10 14 -5 0 -10 5 -10 10 0 21 19 8 46 -32z
m-1666 8 c0 -3 0 -12 0 -19 0 -15 -104 -44 -189 -53 -30 -3 -61 -12 -69 -20
-23 -23 -102 -17 -136 10 -22 18 -27 29 -21 43 5 10 7 21 7 26 -3 10 6 9 31
-5 12 -7 34 -11 50 -9 19 2 27 -2 27 -13 0 -23 80 -15 115 12 15 12 36 22 46
22 10 0 20 3 22 8 6 8 117 7 117 -2z m1190 -72 c0 -2 -7 -4 -15 -4 -8 0 -15 4
-15 10 0 5 7 7 15 4 8 -4 15 -8 15 -10z m-576 -20 c23 -9 1 -34 -29 -34 -12 0
-30 -9 -40 -20 -23 -26 -28 -25 -42 5 -13 30 -6 36 46 42 19 2 37 6 40 8 6 6
6 6 25 -1z m-174 -12 c0 -5 -10 -18 -22 -30 -20 -18 -25 -19 -42 -6 -16 11
-17 14 -4 14 8 0 21 7 28 15 13 16 40 20 40 7z m950 -1 c0 -17 -32 -21 -46 -6
-14 13 -12 15 15 15 17 0 31 -4 31 -9z m350 -37 c0 -8 -4 -14 -10 -14 -5 0
-10 9 -10 21 0 11 5 17 10 14 6 -3 10 -13 10 -21z m-382 -14 c7 -12 8 -20 2
-20 -5 0 -10 5 -10 11 0 6 -13 -3 -29 -20 -16 -17 -38 -31 -50 -31 -12 0 -24
0 -28 -1 -4 0 -9 4 -11 10 -3 8 92 71 108 71 3 0 11 -9 18 -20z m2203 -8 c-12
-23 -51 -58 -51 -46 0 10 47 64 56 64 2 0 0 -8 -5 -18z m-3063 -26 c9 -21 8
-24 -14 -29 -25 -4 -47 14 -26 21 7 2 12 10 12 18 0 22 16 16 28 -10z m707
-45 c3 -5 1 -12 -5 -16 -5 -3 -10 1 -10 9 0 18 6 21 15 7z m2295 -6 c-7 -8
-16 -12 -21 -9 -13 8 -1 24 18 24 13 0 13 -3 3 -15z m-3095 -5 c-3 -5 -20 -10
-36 -10 -18 0 -28 4 -24 10 3 6 20 10 36 10 18 0 28 -4 24 -10z m1568 -7 c-7
-2 -19 -2 -25 0 -7 3 -2 5 12 5 14 0 19 -2 13 -5z m92 -3 l20 -9 -20 0 c-11 0
-27 4 -35 9 -13 9 -13 10 0 9 8 0 24 -4 35 -9z m68 -40 c9 -11 13 -20 9 -20
-10 1 -42 26 -42 34 0 12 16 6 33 -14z m-1266 -17 c16 -21 2 -33 -39 -33 -15
0 -30 -5 -33 -11 -4 -5 -18 -14 -31 -19 -13 -5 -29 -21 -34 -35 -15 -39 -51
-48 -99 -25 -22 11 -43 25 -46 31 -14 22 40 63 135 100 54 22 129 17 147 -8z
m590 -19 c-3 -3 -12 -4 -19 -1 -8 3 -5 6 6 6 11 1 17 -2 13 -5z m-402 -74 c3
-5 -1 -10 -9 -10 -9 0 -16 5 -16 10 0 6 4 10 9 10 6 0 13 -4 16 -10z m207 -45
c73 -9 96 -61 28 -63 -18 0 -39 -7 -49 -16 -9 -8 -38 -21 -64 -27 -26 -7 -47
-16 -47 -20 0 -8 -87 -43 -162 -63 -53 -15 -81 -37 -113 -90 -15 -24 -82 -10
-103 21 -14 22 -14 30 -1 66 13 38 50 70 109 94 8 3 47 21 86 39 119 56 193
76 249 68 11 -2 41 -6 67 -9z m-767 -15 c-3 -6 1 -13 9 -16 26 -10 7 -24 -32
-24 -21 0 -48 -7 -60 -16 -19 -13 -22 -13 -22 0 0 8 -6 16 -12 19 -7 2 5 9 27
16 22 6 47 15 55 21 20 13 43 13 35 0z m2327 -4 c19 -8 40 -22 47 -30 12 -14
10 -15 -18 -5 -17 6 -31 15 -31 20 0 5 -11 9 -24 9 -14 0 -28 5 -31 10 -9 14
17 12 57 -4z m-1152 -115 c3 4 11 -1 18 -12 12 -18 11 -20 -10 -17 -16 2 -26
-4 -36 -24 -17 -36 -52 -38 -52 -3 0 14 -5 25 -11 25 -5 0 -8 -4 -5 -9 3 -5
-7 -11 -22 -14 -15 -3 -40 -9 -55 -13 -25 -6 -28 -4 -25 12 2 13 12 19 29 19
14 0 39 12 57 26 29 25 33 26 69 14 21 -7 40 -9 43 -4z m462 -49 c9 -9 9 -12
-2 -13 -10 0 -7 -4 5 -9 20 -8 20 -9 -1 -9 -12 -1 -35 -14 -52 -31 -18 -16
-38 -30 -46 -30 -8 0 -23 -14 -33 -30 -24 -41 -64 -61 -86 -45 -31 22 -20 60
29 103 78 69 155 95 186 64z m-387 -2 c8 -13 -5 -13 -25 0 -13 8 -13 10 2 10
9 0 20 -4 23 -10z m-60 -28 c-3 -3 -11 0 -18 7 -9 10 -8 11 6 5 10 -3 15 -9
12 -12z m1032 -27 c-7 -14 -19 -25 -27 -25 -9 0 -11 3 -4 8 6 4 13 15 17 25 3
9 11 17 16 17 5 0 4 -11 -2 -25z m-1294 -125 c14 -11 30 -20 36 -20 6 0 11 -4
11 -10 0 -13 -6 -13 -30 0 -14 7 -21 7 -27 -3 -13 -20 -117 -67 -150 -67 -54
0 -93 12 -104 33 -9 16 -6 24 14 44 29 30 70 41 158 42 52 1 72 -3 92 -19z
m-954 -46 c7 -7 -3 -11 -41 -17 -34 -5 -38 -3 -38 15 0 18 4 19 38 13 20 -4
39 -9 41 -11z m1215 -30 c20 -8 21 -44 2 -44 -8 0 -30 -9 -48 -19 -42 -25
-126 -48 -156 -43 -12 2 -27 12 -32 22 -8 15 -4 23 21 41 55 39 165 61 213 43z
m-567 -26 c-3 -8 -6 -5 -6 6 -1 11 2 17 5 13 3 -3 4 -12 1 -19z m1221 -4 c-59
-34 -92 -42 -102 -26 -6 11 26 28 74 40 44 11 59 4 28 -14z m-131 -20 c-3 -3
-12 -4 -19 -1 -8 3 -5 6 6 6 11 1 17 -2 13 -5z m838 -24 c16 -7 11 -9 -22 -9
-59 -1 -86 -31 -80 -88 6 -53 -9 -57 -19 -6 -14 75 53 132 121 103z m57 -7
c-5 -10 -7 -33 -5 -50 3 -20 1 -33 -6 -33 -6 0 -8 7 -5 15 8 21 -22 30 -44 14
-19 -15 24 38 47 59 20 17 23 15 13 -5z m125 -20 c-20 -3 -33 -14 -42 -36 -8
-18 -14 -25 -15 -17 0 29 30 60 58 59 l27 -2 -28 -4z m247 -40 c-5 -73 -7 -78
-13 -23 -7 57 -5 73 8 66 4 -3 6 -22 5 -43z m-50 1 c28 -28 13 -74 -23 -74
-13 1 -13 2 2 11 9 5 17 19 17 31 0 11 -8 27 -17 34 -10 7 -13 14 -6 14 6 0
19 -7 27 -16z m87 -12 c-6 -11 -6 -25 0 -37 10 -19 10 -19 -5 -1 -11 14 -13
24 -5 37 5 11 12 19 15 19 2 0 0 -8 -5 -18z m-873 0 c21 -6 22 -9 8 -27 -9
-11 -16 -14 -16 -7 0 15 -30 16 -30 0 0 -18 -31 -48 -51 -48 -9 0 -39 -20 -66
-45 -26 -25 -52 -43 -58 -41 -19 6 -7 65 21 100 16 20 34 36 40 36 6 0 17 6
24 14 17 21 84 30 128 18z m669 -44 c-3 -7 -5 -2 -5 12 0 14 2 19 5 13 2 -7 2
-19 0 -25z m-218 -2 c-18 -38 -97 -63 -114 -36 -4 6 10 10 34 10 31 0 44 6 58
25 23 31 36 32 22 1z m-1339 -20 c0 -14 -117 -30 -145 -20 -26 10 -16 26 13
20 15 -3 34 -2 42 4 23 15 90 13 90 -4z m107 -2 c-3 -3 -12 -4 -19 -1 -8 3 -5
6 6 6 11 1 17 -2 13 -5z m1228 -114 c3 -5 -1 -10 -9 -10 -9 0 -16 5 -16 10 0
6 4 10 9 10 6 0 13 -4 16 -10z"/>
<path d="M7340 1310 c0 -5 5 -10 10 -10 6 0 10 5 10 10 0 6 -4 10 -10 10 -5 0
-10 -4 -10 -10z"/>
<path d="M7288 443 c7 -3 16 -2 19 1 4 3 -2 6 -13 5 -11 0 -14 -3 -6 -6z"/>
<path d="M8121 2580 c-13 -10 -21 -24 -19 -30 2 -6 14 3 26 19 26 36 24 39 -7
11z"/>
<path d="M8056 2506 c3 -9 1 -16 -5 -16 -6 0 -11 6 -11 13 -1 8 -5 7 -13 -4
-7 -8 -24 -24 -39 -33 -16 -10 -28 -23 -28 -28 0 -5 10 -2 22 6 30 21 38 20
38 -4 0 -12 7 -20 17 -20 13 0 14 3 5 12 -9 9 -6 16 16 30 15 10 22 18 15 18
-7 0 -10 6 -7 14 3 8 1 17 -5 21 -7 3 -8 0 -5 -9z m-11 -26 c3 -5 1 -10 -4
-10 -6 0 -11 5 -11 10 0 6 2 10 4 10 3 0 8 -4 11 -10z"/>
<path d="M8095 2500 c-3 -5 -1 -10 4 -10 6 0 11 5 11 10 0 6 -2 10 -4 10 -3 0
-8 -4 -11 -10z"/>
<path d="M8114 2477 c-11 -12 -12 -17 -4 -11 8 6 22 13 30 16 9 3 10 7 3 11
-6 4 -19 -3 -29 -16z"/>
<path d="M7922 2409 c-19 -17 -22 -39 -6 -39 3 0 3 4 -1 9 -9 16 13 22 34 9
16 -10 23 -10 33 0 9 9 9 12 -2 12 -13 0 -13 2 0 11 12 9 12 10 -4 5 -11 -4
-22 -2 -26 4 -4 6 -15 2 -28 -11z"/>
<path d="M7850 2336 c0 -2 7 -7 16 -10 8 -3 12 -2 9 4 -6 10 -25 14 -25 6z"/>
<path d="M7035 1720 c-3 -5 1 -10 10 -10 9 0 13 5 10 10 -3 6 -8 10 -10 10 -2
0 -7 -4 -10 -10z"/>
<path d="M6995 1700 c-3 -5 -2 -10 4 -10 5 0 13 5 16 10 3 6 2 10 -4 10 -5 0
-13 -4 -16 -10z"/>
<path d="M5110 1656 c0 -2 8 -10 18 -17 15 -13 16 -12 3 4 -13 16 -21 21 -21
13z"/>
<path d="M6880 1650 c-20 -6 -21 -8 -5 -8 11 0 31 4 45 8 20 6 21 8 5 8 -11 0
-31 -4 -45 -8z"/>
<path d="M6940 1600 c0 -5 5 -10 10 -10 6 0 10 5 10 10 0 6 -4 10 -10 10 -5 0
-10 -4 -10 -10z"/>
<path d="M6690 1580 c-8 -5 -10 -10 -5 -10 6 0 17 5 25 10 8 5 11 10 5 10 -5
0 -17 -5 -25 -10z"/>
<path d="M5224 1565 c36 -19 47 -19 22 0 -11 8 -27 15 -35 15 -9 0 -3 -7 13
-15z"/>
<path d="M5300 1530 c8 -5 20 -10 25 -10 6 0 3 5 -5 10 -8 5 -19 10 -25 10 -5
0 -3 -5 5 -10z"/>
<path d="M5347 1499 c7 -7 15 -10 18 -7 3 3 -2 9 -12 12 -14 6 -15 5 -6 -5z"/>
<path d="M6631 1484 c0 -11 3 -14 6 -6 3 7 2 16 -1 19 -3 4 -6 -2 -5 -13z"/>
<path d="M5390 1480 c20 -13 33 -13 25 0 -3 6 -14 10 -23 10 -15 0 -15 -2 -2
-10z"/>
<path d="M5178 1469 c-24 -13 -23 -29 1 -29 14 0 19 6 18 20 -1 11 -1 20 -2
20 0 0 -8 -5 -17 -11z"/>
<path d="M5360 1466 c0 -2 7 -7 16 -10 8 -3 12 -2 9 4 -6 10 -25 14 -25 6z"/>
<path d="M6318 1453 c7 -3 16 -2 19 1 4 3 -2 6 -13 5 -11 0 -14 -3 -6 -6z"/>
<path d="M5080 1415 c-11 -13 -10 -18 5 -29 10 -7 15 -18 11 -24 -8 -13 30
-17 58 -6 25 9 19 24 -9 24 -15 0 -25 6 -25 14 0 7 -6 19 -14 25 -10 9 -16 8
-26 -4z"/>
<path d="M4785 1405 c-3 -8 -7 -22 -10 -30 -2 -9 -16 -15 -33 -15 -15 0 -33
-5 -39 -11 -15 -15 -43 -4 -43 16 0 9 -5 22 -12 29 -18 19 -40 -6 -33 -36 7
-27 69 -52 95 -38 9 5 22 5 30 0 8 -5 25 -3 41 6 16 8 33 14 39 14 7 0 26 6
43 14 18 8 40 17 50 20 11 3 17 13 15 23 -5 25 -136 32 -143 8z m-148 -37 c-3
-8 -6 -5 -6 6 -1 11 2 17 5 13 3 -3 4 -12 1 -19z"/>
<path d="M5293 1403 c-27 -10 -11 -23 27 -23 22 0 40 5 40 10 0 6 -6 10 -14
10 -8 0 -20 2 -28 4 -7 3 -19 2 -25 -1z"/>
<path d="M5938 1403 c12 -2 32 -2 45 0 12 2 2 4 -23 4 -25 0 -35 -2 -22 -4z"/>
<path d="M6018 1403 c7 -3 16 -2 19 1 4 3 -2 6 -13 5 -11 0 -14 -3 -6 -6z"/>
<path d="M6083 1403 c9 -2 23 -2 30 0 6 3 -1 5 -18 5 -16 0 -22 -2 -12 -5z"/>
<path d="M6100 1390 l-35 -7 35 -2 c19 0 42 4 50 9 13 9 13 10 0 9 -8 -1 -31
-5 -50 -9z"/>
<path d="M5253 1353 c9 -2 25 -2 35 0 9 3 1 5 -18 5 -19 0 -27 -2 -17 -5z"/>
<path d="M4961 1326 c-20 -11 -21 -14 -6 -19 26 -10 153 -8 160 2 9 15 -12 23
-73 27 -35 2 -66 -2 -81 -10z m79 -6 c0 -5 -5 -10 -11 -10 -5 0 -7 5 -4 10 3
6 8 10 11 10 2 0 4 -4 4 -10z"/>
<path d="M5098 1273 c7 -3 16 -2 19 1 4 3 -2 6 -13 5 -11 0 -14 -3 -6 -6z"/>
<path d="M5255 1240 l-30 -7 27 -7 c32 -9 62 -1 53 14 -7 11 -6 11 -50 0z"/>
<path d="M5734 895 c-18 -14 -18 -14 6 -14 14 0 34 6 44 14 19 14 19 15 -5 15
-14 0 -34 -7 -45 -15z"/>
<path d="M4910 870 c20 -13 40 -13 40 0 0 6 -12 10 -27 10 -22 0 -25 -2 -13
-10z"/>
<path d="M5360 611 c0 -15 25 -20 69 -14 59 8 50 23 -14 23 -30 0 -55 -4 -55
-9z"/>
<path d="M5795 570 c-35 -6 -32 -7 28 -9 43 0 66 3 62 9 -7 11 -29 11 -90 0z"/>
<path d="M5693 563 c9 -2 23 -2 30 0 6 3 -1 5 -18 5 -16 0 -22 -2 -12 -5z"/>
<path d="M5050 530 c-12 -8 -12 -10 5 -10 11 0 27 5 35 10 12 8 12 10 -5 10
-11 0 -27 -5 -35 -10z"/>
<path d="M5128 533 c6 -2 18 -2 25 0 6 3 1 5 -13 5 -14 0 -19 -2 -12 -5z"/>
<path d="M4985 520 c-18 -8 -17 -9 7 -9 15 -1 30 4 33 9 7 12 -12 12 -40 0z"/>
<path d="M6030 470 c0 -5 5 -10 10 -10 6 0 10 5 10 10 0 6 -4 10 -10 10 -5 0
-10 -4 -10 -10z"/>
<path d="M5940 450 c-13 -8 -12 -10 3 -10 9 0 17 5 17 10 0 12 -1 12 -20 0z"/>
<path d="M5628 373 c7 -3 16 -2 19 1 4 3 -2 6 -13 5 -11 0 -14 -3 -6 -6z"/>
<path d="M2860 197 c14 -6 28 -16 32 -22 5 -6 8 -3 8 6 0 18 -20 29 -48 28
-12 0 -9 -4 8 -12z"/>
<path d="M5475 183 c-37 -20 -20 -28 41 -18 40 6 63 25 30 25 -8 0 -20 2 -28
5 -7 2 -26 -3 -43 -12z"/>
<path d="M6123 193 c-13 -2 -23 -9 -23 -14 0 -6 9 -8 19 -4 11 3 22 1 26 -5 3
-6 39 -9 83 -9 42 1 66 4 52 6 -13 3 -33 11 -44 19 -20 13 -65 16 -113 7z"/>
<path d="M2843 173 c9 -2 17 -14 17 -26 0 -16 3 -18 12 -9 14 14 -7 43 -31 41
-13 -1 -13 -2 2 -6z"/>
<path d="M2890 150 c0 -3 4 -10 10 -16 5 -5 13 -38 16 -72 5 -44 11 -62 21
-62 12 0 13 11 7 57 -9 75 -18 100 -38 100 -9 0 -16 -3 -16 -7z"/>
<path d="M6908 153 c7 -3 16 -2 19 1 4 3 -2 6 -13 5 -11 0 -14 -3 -6 -6z"/>
<path d="M6278 143 c6 -2 18 -2 25 0 6 3 1 5 -13 5 -14 0 -19 -2 -12 -5z"/>
<path d="M6585 139 c-52 -16 -201 -23 -209 -10 -4 6 -16 11 -27 11 -11 0 -18
-4 -14 -9 3 -6 -3 -10 -12 -10 -126 0 -164 -4 -160 -14 3 -8 23 -11 56 -9 35
2 50 -1 46 -8 -3 -6 3 -10 15 -10 13 0 19 4 14 11 -4 8 4 9 27 4 48 -10 55
-16 34 -32 -30 -21 -4 -40 26 -19 13 9 31 16 39 16 9 0 21 5 28 12 6 6 31 13
54 15 24 1 54 4 68 6 14 2 31 -1 38 -6 9 -7 19 -4 32 11 21 22 26 42 11 42 -5
0 -15 2 -23 4 -7 2 -26 0 -43 -5z"/>
<path d="M6730 130 l-25 -8 25 0 c14 0 36 4 50 8 l25 8 -25 0 c-14 0 -36 -4
-50 -8z"/>
<path d="M2880 105 c0 -8 4 -15 10 -15 5 0 7 7 4 15 -4 8 -8 15 -10 15 -2 0
-4 -7 -4 -15z"/>
<path d="M6116 112 c-4 -6 -5 -16 -2 -21 4 -5 1 -11 -6 -13 -8 -3 -6 -7 5 -11
21 -8 26 1 17 33 -4 17 -8 21 -14 12z"/>
<path d="M2790 100 c8 -5 20 -10 25 -10 6 0 3 5 -5 10 -8 5 -19 10 -25 10 -5
0 -3 -5 5 -10z"/>
<path d="M6810 79 c-19 -5 -42 -6 -51 -3 -9 2 -19 -2 -23 -11 -3 -8 -12 -15
-21 -15 -18 0 -20 -16 -2 -23 7 -3 5 -6 -5 -6 -10 -1 -18 -5 -18 -10 0 -4 25
-8 55 -8 51 0 55 1 55 24 0 14 5 23 13 22 21 -4 67 13 67 24 0 6 -3 7 -7 4 -3
-4 -11 -3 -17 1 -6 5 -27 5 -46 1z"/>
<path d="M5899 65 c-14 -15 -40 -18 -89 -13 -21 3 -25 -1 -25 -22 l0 -25 157
-1 c130 -1 156 1 151 12 -3 9 2 14 17 14 16 0 20 -4 16 -15 -4 -12 5 -15 57
-13 50 1 54 2 19 5 -28 3 -47 11 -55 24 -7 11 -23 19 -38 19 -15 0 -29 7 -33
15 -4 12 -12 11 -42 -10 -38 -26 -64 -21 -64 11 0 17 -12 18 -28 2 -10 -10
-14 -10 -20 -1 -6 10 -11 9 -23 -2z"/>
<path d="M2820 61 c0 -5 5 -13 10 -16 6 -3 10 -2 10 4 0 5 -4 13 -10 16 -5 3
-10 2 -10 -4z"/>
<path d="M2882 50 c0 -14 2 -19 5 -12 2 6 2 18 0 25 -3 6 -5 1 -5 -13z"/>
<path d="M6555 49 c-11 -17 0 -20 21 -4 17 13 17 14 2 15 -9 0 -20 -5 -23 -11z"/>
<path d="M7861 53 c-51 -10 -69 -53 -22 -53 21 0 32 6 36 20 3 11 13 20 21 20
8 0 12 5 9 10 -3 6 -9 9 -13 9 -4 -1 -18 -4 -31 -6z"/>
<path d="M1267 30 c-23 -27 -22 -30 11 -30 16 0 32 8 39 19 22 35 -21 44 -50
11z m41 -2 c-2 -6 -10 -14 -16 -16 -7 -2 -10 2 -6 12 7 18 28 22 22 4z"/>
<path d="M5002 43 c-7 -3 -17 -13 -22 -24 -10 -17 -7 -19 33 -19 31 0 44 4 44
14 0 16 -36 35 -55 29z"/>
<path d="M2850 19 c0 -5 5 -7 10 -4 6 3 10 8 10 11 0 2 -4 4 -10 4 -5 0 -10
-5 -10 -11z"/>
<path d="M7900 15 c-10 -12 -10 -15 3 -15 19 0 31 16 18 24 -5 3 -14 -1 -21
-9z"/>
<path d="M4605 10 c-19 -8 -19 -9 3 -9 12 -1 22 4 22 9 0 6 -1 10 -2 9 -2 0
-12 -4 -23 -9z"/>
<path d="M6255 10 c-3 -5 3 -10 15 -10 12 0 18 5 15 10 -3 6 -10 10 -15 10 -5
0 -12 -4 -15 -10z"/>
<path d="M6375 10 c-3 -5 1 -10 9 -10 9 0 16 5 16 10 0 6 -4 10 -9 10 -6 0
-13 -4 -16 -10z"/>
<path d="M5738 3 c7 -3 16 -2 19 1 4 3 -2 6 -13 5 -11 0 -14 -3 -6 -6z"/>
<path d="M6488 3 c7 -3 16 -2 19 1 4 3 -2 6 -13 5 -11 0 -14 -3 -6 -6z"/>
<path d="M6598 3 c7 -3 16 -2 19 1 4 3 -2 6 -13 5 -11 0 -14 -3 -6 -6z"/>
</g>
</svg>
